<svg width="80" height="80" viewBox="0 0 80 80" fill="none" xmlns="http://www.w3.org/2000/svg">
<path d="M24.7839 5.62127C23.9457 5.44536 23.359 5.74542 23.0239 6.52145" stroke="#F7CDDC" stroke-width="2"/>
<path d="M23.0239 6.52148C22.4946 6.56134 22.1346 6.82796 21.6679 7.09046C1.96792 18.1964 -3.94941 44.0102 9.26925 62.8769C11.263 65.7227 13.6408 68.2611 16.4026 70.492" stroke="#F7CDDC" stroke-width="2"/>
<path d="M16.4027 70.4922C15.5854 70.6475 14.732 70.7932 13.9694 71.2206C13.9415 71.2363 13.9171 71.2576 13.8974 71.2833C13.8777 71.309 13.8633 71.3385 13.855 71.37C13.8466 71.4016 13.8446 71.4346 13.8489 71.467C13.8532 71.4994 13.8638 71.5306 13.88 71.5587C14.4094 72.474 19.7414 72.8698 20.8694 72.988" stroke="#F7CDDC" stroke-width="2"/>
<path d="M20.8691 72.9877L20.8851 73.0565C20.8897 73.0775 20.8988 73.0973 20.9117 73.1144C20.9246 73.1315 20.941 73.1455 20.9598 73.1554C27.3607 76.572 34.0936 78.1277 41.1585 77.8226C47.1798 77.5615 52.9038 75.9219 58.3358 73.1719C58.3776 73.1508 58.4216 73.1375 58.4678 73.132C58.5718 73.1201 58.6247 73.0445 58.6265 72.9053" stroke="#F7CDDC" stroke-width="2"/>
<path d="M58.6267 72.9053C60.2543 72.7478 61.8663 72.5155 63.4627 72.2086C63.8769 72.1289 64.2938 71.9951 64.7134 71.8073C64.7468 71.7928 64.7772 71.7718 64.8027 71.7454C65.0605 71.4806 65.0107 71.2699 64.6534 71.1132C64.2232 70.9245 63.7449 70.7674 63.2187 70.6418" stroke="#F7CDDC" stroke-width="2"/>
<path d="M63.2186 70.6419C63.6755 70.3295 64.0946 70.0129 64.4759 69.6923C73.7306 61.8889 78.4972 50.0449 77.7106 37.764C76.8532 24.385 69.1732 13.0688 57.8639 6.88162C57.7537 6.82115 57.6617 6.84085 57.5879 6.94072" stroke="#F7CDDC" stroke-width="2"/>
<path d="M57.5878 6.94071C57.1692 6.23797 56.6212 5.94524 55.9438 6.06251" stroke="#F7CDDC" stroke-width="2"/>
<path d="M55.9439 6.06248L55.9613 5.9869C55.971 5.94017 55.9546 5.90673 55.9119 5.88657C47.0853 1.66603 37.3346 1.05583 28.0586 4.26075C26.7626 4.70786 25.671 5.16139 24.7839 5.62133" stroke="#F7CDDC" stroke-width="2"/>
<path d="M55.9439 6.06249C51.7973 6.82799 46.8279 8.56238 44.6599 12.6111C44.6048 12.7147 44.5213 12.7467 44.4093 12.7073C44.2626 12.656 44.1862 12.6299 44.1799 12.629C40.8955 11.984 37.703 12.3134 34.6026 13.6171C34.5798 13.6268 34.5542 13.6269 34.5311 13.6175C34.508 13.608 34.4892 13.5897 34.4786 13.5663C32.6199 9.51891 28.9346 6.90908 24.7839 5.62134" stroke="#F7CDDC" stroke-width="2"/>
<path d="M57.588 6.94067C57.6467 7.66998 57.6494 8.78318 57.596 10.2803C57.5534 11.4704 57.604 13.0408 57.748 14.9914C57.8494 16.3557 57.8876 17.2701 57.8627 17.7346C57.7471 19.8767 57.0565 21.803 55.7907 23.5136C55.7586 23.5574 55.7366 23.6081 55.7262 23.6621C55.7158 23.7162 55.7173 23.772 55.7307 23.8256C55.8854 24.4266 56 25.0267 56.0747 25.626C56.1534 26.265 56.1174 27.315 56.2934 28.0063C56.564 29.0824 57.436 30.0375 58.5774 29.9647C59.536 29.9015 60.2627 29.9702 60.0987 31.2401C59.684 34.4505 58.332 37.353 55.9707 39.3953C55.9334 39.4274 55.9231 39.4667 55.94 39.5135C56.1054 39.9752 56.2067 40.2955 55.8214 40.6707C54.5031 41.9543 53.0022 42.8971 51.3187 43.499C51.3047 43.5039 51.2919 43.5121 51.2814 43.523C51.271 43.5338 51.2631 43.5471 51.2583 43.5617C51.2535 43.5762 51.2521 43.5918 51.254 43.6071C51.2559 43.6225 51.2612 43.6372 51.2694 43.6502C53.572 47.2701 55.2867 51.7985 54.592 56.206C54.4347 57.1969 54.4107 58.0091 53.2587 57.8854C53.2125 57.8799 53.1894 57.901 53.1894 57.9486C53.1956 60.722 53.4329 63.4739 53.9014 66.2042C53.9102 66.2564 53.9405 66.2825 53.992 66.2825C54.7294 66.2853 55.5987 66.2317 56.232 66.3842C57.7254 66.747 58.8374 68.2079 58.4347 69.8832C58.4214 69.9373 58.4414 69.9666 58.4947 69.9712C60.1187 70.1132 61.6934 70.3368 63.2187 70.6419" stroke="#F7CDDC" stroke-width="2"/>
<path d="M58.6265 72.9053C56.7465 73.0729 54.8598 73.1976 52.9665 73.2791C42.2691 73.7409 31.5531 73.6886 20.8691 72.9877" stroke="#F7CDDC" stroke-width="2"/>
<path d="M16.4025 70.492L20.6945 69.9135C20.7497 69.9061 20.7599 69.8805 20.7252 69.8365C19.311 68.0453 18.4674 65.9985 18.1945 63.696C18.1874 63.642 18.1581 63.6186 18.1065 63.6259C14.6572 64.0891 11.4065 62.1788 10.2959 58.7828C9.26655 55.6384 10.5652 51.8453 13.8439 50.8956C14.9679 50.5699 16.3039 50.6331 17.2532 51.3175C18.3345 52.0967 18.8639 53.2965 18.5479 54.6104C18.5363 54.6599 18.5545 54.6796 18.6025 54.6695L19.1599 54.5568C19.2123 54.5467 19.2497 54.516 19.2719 54.4647C21.2914 49.7929 24.0265 45.6159 27.4772 41.9336C27.5368 41.8704 27.5261 41.8241 27.4452 41.7948C26.6599 41.5131 23.6919 40.2418 23.5052 39.3898C23.2972 38.4332 24.1706 38.2243 24.8972 38.1323C24.9923 38.1204 24.9946 38.0984 24.9039 38.0663C23.1137 37.435 21.6479 36.4185 20.5065 35.0167C19.9652 34.3515 20.1772 33.4994 21.0532 33.4225C21.6337 33.3712 22.2168 33.3107 22.8025 33.2411C22.8745 33.2319 22.8794 33.2081 22.8172 33.1696C22.3439 32.8796 21.6519 32.5113 21.4306 31.9959C20.9986 30.9858 22.1265 30.8374 22.6985 30.5488C23.7679 30.01 24.0092 28.8899 23.9652 27.6723C23.9545 27.3713 24.0279 27.2023 23.7559 26.992C20.4012 24.3849 18.7932 20.1603 20.2292 15.9686C20.5906 14.9131 21.3559 13.5237 21.8266 12.3679C22.6026 10.4617 22.7692 8.62557 23.0239 6.52148" stroke="#F7CDDC" stroke-width="2"/>
<path d="M23.672 11.9268C23.3351 12.963 22.8916 14.0189 22.3414 15.0946C20.0854 19.5116 21.6934 23.4518 25.352 26.118C25.3819 26.1397 25.4073 26.1674 25.4265 26.1996C25.4458 26.2317 25.4585 26.2675 25.464 26.3049C25.7614 28.2345 25.5467 30.5612 23.8307 31.7706C23.7907 31.799 23.7929 31.8228 23.8374 31.8421L24.192 32.0015" stroke="#9A7270" stroke-width="2"/>
<path d="M24.1919 32.0015L26.2266 32.6927C26.2486 32.7002 26.2689 32.7124 26.286 32.7285C26.3031 32.7447 26.3167 32.7644 26.3259 32.7863C26.3351 32.8083 26.3397 32.832 26.3393 32.8559C26.339 32.8798 26.3337 32.9034 26.3239 32.925C26.0332 33.559 25.5426 34.0419 24.8519 34.3735" stroke="#9C827F" stroke-width="2"/>
<path d="M24.8519 34.3735C24.2484 34.6273 23.5866 34.8037 22.8666 34.9027C22.8097 34.9109 22.8021 34.9356 22.8439 34.9769C24.5106 36.5986 26.9746 36.9765 29.1999 37.6527C29.2613 37.671 29.2679 37.7021 29.2199 37.7461C28.3817 38.5093 27.4235 39.0499 26.3453 39.3678C26.3368 39.3702 26.3292 39.3752 26.3236 39.3821C26.318 39.3891 26.3145 39.3976 26.3138 39.4066C26.3131 39.4157 26.3151 39.4247 26.3195 39.4325C26.3239 39.4403 26.3306 39.4465 26.3386 39.4503C27.6106 40.0816 28.9297 40.5818 30.2959 40.951C30.3052 40.9534 30.3137 40.9581 30.3207 40.9648C30.3277 40.9715 30.3329 40.98 30.3359 40.9893C30.3388 40.9987 30.3394 41.0087 30.3375 41.0183C30.3357 41.028 30.3314 41.037 30.3253 41.0445L29.4266 42.1412" stroke="#9A7270" stroke-width="2"/>
<path d="M29.4265 42.1411L28.4585 43.2516" stroke="#956666" stroke-width="2"/>
<path d="M28.4586 43.2517C23.8119 48.3614 19.0319 55.5739 19.7533 62.9787" stroke="#9A7270" stroke-width="2"/>
<path d="M19.7532 62.9787C20.0332 66.9106 22.4718 71.0033 26.7318 70.9841C29.3852 70.9703 31.7625 70.8961 34.3078 70.154C34.3164 70.1514 34.3242 70.1469 34.3308 70.1408C34.3374 70.1347 34.3425 70.1271 34.3459 70.1187C34.3492 70.1102 34.3506 70.1011 34.35 70.092C34.3495 70.0828 34.3469 70.074 34.3425 70.066C33.3572 68.2712 32.8078 66.6096 32.0238 64.3351C31.7292 63.4775 31.7065 62.8783 32.7505 62.7437" stroke="#956666" stroke-width="2"/>
<path d="M32.7505 62.7437C32.9772 62.86 33.1465 63.035 33.2585 63.2686C33.5723 63.9274 33.8843 64.7511 34.1945 65.7397" stroke="#9C827F" stroke-width="2"/>
<path d="M34.1946 65.7397C34.9079 67.8163 36.0066 70.9512 38.4853 71.3374" stroke="#9A7270" stroke-width="2"/>
<path d="M38.4854 71.3373C39.5218 71.3996 40.9045 71.4101 42.6333 71.3689C43.5196 71.3478 44.0925 71.0115 44.352 70.3601" stroke="#9C827F" stroke-width="2"/>
<path d="M44.3518 70.36C44.6398 69.1534 44.0558 68.5088 42.9518 68.3617C41.9825 68.2326 41.0198 68.1089 40.3691 68.8799" stroke="#9C95A0" stroke-width="2"/>
<path d="M40.3693 68.8799C40.2342 68.9331 40.1267 68.8726 40.0467 68.6985C39.8884 68.3522 39.7178 67.7053 39.5347 66.758C38.9547 63.751 38.708 60.689 38.5893 57.6284C38.5751 57.2637 38.5938 57.0127 38.6453 56.8752C38.9493 56.0602 40.124 56.2307 40.156 57.282C40.1987 58.6215 40.2689 59.9647 40.3667 61.3115" stroke="#9C827F" stroke-width="2"/>
<path d="M40.3667 61.3115C40.4983 62.9909 40.7316 64.6974 41.0667 66.4309" stroke="#9A7270" stroke-width="2"/>
<path d="M41.0667 66.4308L41.1533 66.8198C41.164 66.872 41.1951 66.8958 41.2466 66.8912C42.1809 66.8097 43.1031 66.8669 44.0133 67.063C44.1893 67.1015 44.3973 67.2307 44.596 67.2815C44.6422 67.2925 44.6849 67.2847 44.724 67.2582C45.0866 67.0117 45.4284 66.7378 45.7493 66.4363C46.2333 65.9814 45.072 64.9204 46.1173 64.3391" stroke="#956666" stroke-width="2"/>
<path d="M46.1172 64.3392C47.0825 64.0313 47.2159 64.8917 47.4092 65.5939C47.9639 67.6183 48.8905 70.5058 51.3252 70.8521" stroke="#9A7270" stroke-width="2"/>
<path d="M51.3252 70.8522C52.5759 70.9218 53.8199 70.9434 55.0572 70.9168C55.8612 70.9003 56.6572 70.5732 56.9372 69.75" stroke="#9C827F" stroke-width="2"/>
<path d="M56.9372 69.7499C57.3172 67.7791 55.3772 67.654 54.0452 67.7928C53.5839 67.8409 53.2959 68.1433 52.9346 68.4264" stroke="#9C95A0" stroke-width="2"/>
<path d="M52.9347 68.4264C52.8209 68.2349 52.7467 68.0741 52.712 67.944C52.3289 66.4863 52.0671 65.0057 51.9267 63.5022C51.6333 60.3784 51.6147 57.4786 51.4307 55.2852" stroke="#9C827F" stroke-width="2"/>
<path d="M51.4307 55.2852L51.26 52.4321" stroke="#9A7270" stroke-width="2"/>
<path d="M51.26 52.4322C51.2129 52.3846 51.1942 52.3461 51.204 52.3168C51.2209 52.2682 51.2489 52.259 51.288 52.2893C51.9884 52.8298 52.5867 53.4707 53.0827 54.212C53.1289 54.2807 53.152 54.2733 53.152 54.19C53.1747 50.8572 51.7613 47.4874 50.032 44.7979" stroke="#9C95A0" stroke-width="2"/>
<path d="M50.0319 44.7977L49.3972 43.8096" stroke="#9A7270" stroke-width="2"/>
<path d="M49.3973 43.8097L48.6306 42.6992" stroke="#956666" stroke-width="2"/>
<path d="M48.6306 42.699C50.2119 42.3234 51.6942 41.6875 53.0773 40.7915C53.1244 40.7612 53.1204 40.7429 53.0653 40.7365L52.1306 40.6279" stroke="#9C827F" stroke-width="2"/>
<path d="M52.1306 40.6281C51.6568 40.6171 51.2621 40.5223 50.9466 40.3437C50.8799 40.3052 50.8839 40.2768 50.9586 40.2584C52.7284 39.8068 54.2724 38.9432 55.5906 37.6678C55.5998 37.6585 55.6062 37.6465 55.6088 37.6334C55.6114 37.6203 55.6102 37.6068 55.6053 37.5946C55.6004 37.5824 55.592 37.572 55.5813 37.565C55.5705 37.558 55.558 37.5545 55.5453 37.5552L53.8519 37.6088C53.8388 37.6097 53.8257 37.606 53.8149 37.5982C53.8041 37.5904 53.7963 37.579 53.7927 37.566C53.7891 37.5529 53.7899 37.5389 53.7951 37.5265C53.8004 37.514 53.8096 37.5037 53.8212 37.4974C55.7506 36.3595 57.1226 35.3631 58.1066 33.2205C58.1117 33.2094 58.1137 33.197 58.1124 33.1847C58.1111 33.1724 58.1065 33.1608 58.0992 33.151C58.0919 33.1412 58.0822 33.1337 58.071 33.1292C58.0598 33.1248 58.0477 33.1235 58.0359 33.1257C57.4946 33.2219 56.9501 33.2512 56.4026 33.2137C56.3466 33.2091 56.3408 33.1894 56.3853 33.1546C56.9666 32.6937 57.4915 32.171 57.9599 31.5865C57.9893 31.5498 57.9808 31.5274 57.9346 31.5191C56.939 31.3441 56.1439 30.8714 55.5493 30.1008" stroke="#9C95A0" stroke-width="2"/>
<path d="M55.5492 30.1008C54.9288 29.212 54.6097 28.2519 54.5919 27.2202C54.5079 22.3386 51.6865 17.9105 47.5625 15.6525C43.1239 13.2241 37.9545 13.4055 33.5492 15.9315C33.503 15.9581 33.4745 15.9448 33.4639 15.8917C32.5599 11.5062 28.5479 8.5569 24.6212 7.30215C24.6098 7.29837 24.5977 7.29739 24.5858 7.29927C24.5739 7.30116 24.5626 7.30586 24.5527 7.31302C24.5427 7.32018 24.5345 7.32962 24.5286 7.3406C24.5227 7.35157 24.5193 7.36381 24.5185 7.37636C24.4332 8.9321 24.151 10.4489 23.6719 11.9267" stroke="#9C827F" stroke-width="2"/>
<path d="M55.5493 30.1007C54.5555 30.1547 53.6484 30.3636 52.8279 30.7274C52.7853 30.7457 52.7457 30.7402 52.7093 30.7109L51.4106 29.6636C51.3795 29.6389 51.3568 29.6073 51.3426 29.5688L51.3159 29.5015" stroke="#FFEBDD" stroke-width="2"/>
<path d="M51.3158 29.5015C52.8372 29.0589 53.2732 27.1693 51.8865 26.2485C51.3656 25.9021 50.8594 25.8449 50.3678 26.0767C49.4532 26.5082 49.1269 27.276 49.3892 28.38" stroke="#9C827F" stroke-width="2"/>
<path d="M49.3894 28.3801C49.26 28.3375 49.1427 28.3581 49.0067 28.3141C45.392 27.135 41.5027 28.2386 39.0454 31.2208C39.032 31.237 39.0146 31.2493 38.995 31.2563C38.9753 31.2633 38.954 31.2648 38.9334 31.2607C35.9454 30.6285 34.1694 32.5141 31.6454 33.5187C30.4685 33.9869 29.2565 34.2929 28.0094 34.4367C27.9866 34.4393 27.9652 34.4495 27.9485 34.4658C27.9318 34.482 27.9208 34.5035 27.917 34.5268C27.9132 34.5501 27.917 34.5741 27.9276 34.5951C27.9383 34.616 27.9553 34.6328 27.976 34.6429C28.9427 35.117 30.132 35.3094 31.1734 35.5582C31.2249 35.571 31.2263 35.588 31.1774 35.609C29.752 36.2055 28.9147 36.5023 27.4534 36.5766" stroke="#FFEBDD" stroke-width="2"/>
<path d="M27.4531 36.5766C26.4371 36.1322 25.57 35.3979 24.8518 34.3735" stroke="#FDC7AC" stroke-width="2"/>
<path d="M24.192 32.0015C24.544 31.75 24.8894 31.6112 25.156 31.2689C26.584 29.4425 26.7574 27.4992 26.9747 25.0625C26.9925 24.8637 27.0023 24.7093 27.004 24.5994C27.004 24.575 26.9973 24.5512 26.9848 24.5306C26.9724 24.5099 26.9545 24.4933 26.9334 24.4825C23.972 23.0148 22.0587 20.5589 22.696 16.9774C22.8071 16.3553 23.0396 15.5073 23.3934 14.4335C23.8094 13.1746 24.0387 12.0092 24.2987 10.7613C24.3014 10.7476 24.296 10.7375 24.2827 10.7311C24.2756 10.7274 24.2703 10.7292 24.2667 10.7366L23.832 11.8938C23.8116 11.9469 23.7756 11.9638 23.724 11.9446L23.672 11.9267" stroke="#FDC7AC" stroke-width="2"/>
<path d="M52.1306 40.6279C52.0177 40.8112 51.8062 40.8638 51.4959 40.786C51.4716 40.7797 51.4457 40.7806 51.4213 40.7887L48.4319 41.8634C48.3911 41.8781 48.3555 41.8699 48.3253 41.8387C48.2791 41.7901 48.2257 41.7567 48.1653 41.7384" stroke="#FFEBDD" stroke-width="2"/>
<path d="M48.1652 41.7384C48.5039 41.1648 48.7146 40.5272 48.7972 39.8253C48.7993 39.8081 48.8051 39.7914 48.8141 39.7765C48.823 39.7615 48.835 39.7487 48.8492 39.7387C49.6972 39.157 50.3692 38.4075 50.8652 37.4904C50.886 37.4511 50.9188 37.4197 50.9586 37.401C52.019 36.9063 52.8137 36.1261 53.3426 35.0606C53.6159 34.5108 52.8452 33.9597 52.4172 34.6854C51.3972 36.4143 49.4506 37.357 47.6252 36.1848C47.5728 36.1518 47.5172 36.117 47.4586 36.0803C47.4377 36.0676 47.4203 36.0497 47.4079 36.0284C47.3956 36.007 47.3887 35.9828 47.3879 35.958L47.3586 34.9973C47.3568 34.946 47.3803 34.9163 47.4292 34.908C49.0759 34.6386 50.7466 33.0554 50.0599 31.2303C49.4599 29.6334 45.3852 29.7777 44.3866 30.851C43.7479 31.5382 43.9586 32.8644 44.4066 33.5337C44.8892 34.2529 45.5794 34.7142 46.4772 34.9176C46.5181 34.9268 46.5421 34.952 46.5492 34.9932C46.6212 35.3844 46.5452 35.7207 46.3212 36.002C44.6906 38.0497 41.4426 37.3254 39.5466 36.0707C39.047 35.7399 38.6666 35.3441 38.4052 34.8833C38.1959 34.5136 38.0026 34.4888 37.6226 34.5631" stroke="#9C95A0" stroke-width="2"/>
<path d="M37.6227 34.5633C35.9733 34.0451 36.672 36.8103 37.0853 37.5071C37.7449 38.623 38.7404 39.3963 40.072 39.8269C40.6418 40.0111 41.1169 40.0738 41.4973 40.0152" stroke="#FDDBCE" stroke-width="2"/>
<path d="M41.4973 40.0151C41.6875 40.3624 41.8933 40.7541 42.1146 41.1902C42.3431 41.6419 42.7511 42.0972 43.3386 42.5563" stroke="#9C95A0" stroke-width="2"/>
<path d="M43.3387 42.5563C41.096 42.7332 38.8925 42.6452 36.728 42.2925C35.896 42.1564 34.9947 41.8238 34.1267 41.6039C34.1192 41.6019 34.1125 41.5977 34.1072 41.5919C34.1019 41.5861 34.0983 41.5789 34.0969 41.5712C34.0955 41.5635 34.0963 41.5556 34.0992 41.5485C34.1021 41.5413 34.1071 41.5353 34.1134 41.5311L35.4107 40.6625C35.4774 40.6176 35.4711 40.5892 35.392 40.5773C34.0178 40.3757 32.6858 40.0102 31.396 39.4806C31.276 39.4311 31.2765 39.383 31.3974 39.3363C31.9476 39.1237 32.4729 38.8599 32.9734 38.5447C33.0329 38.508 33.028 38.4865 32.9587 38.4801C31.7934 38.3738 30.6743 38.0825 29.6014 37.606C29.5649 37.5895 29.536 37.5643 29.5147 37.5304C29.476 37.4686 29.4387 37.437 29.3627 37.4164C28.7574 37.2418 27.9334 37.0219 27.4534 36.5767" stroke="#FDDBCE" stroke-width="2"/>
<path d="M51.3158 29.5016C51.2643 29.5254 51.2056 29.5185 51.1398 29.481C50.7274 29.2455 50.1438 28.8785 49.3892 28.3801" stroke="#9C95A0" stroke-width="2"/>
<path d="M45.9653 43.095C45.9128 43.1728 45.8822 43.2429 45.8733 43.3052" stroke="#FDC7AC" stroke-width="2"/>
<path d="M45.8732 43.3052C40.2874 44.2818 34.8052 43.8938 29.4265 42.1411" stroke="#F7AB93" stroke-width="2"/>
<path d="M48.6306 42.6992C47.6426 42.7803 46.8333 43.1816 45.8733 43.3053" stroke="#F9BBA2" stroke-width="2"/>
<path d="M48.1653 41.7385C47.6231 42.5017 46.8898 42.9539 45.9653 43.095" stroke="#9C827F" stroke-width="2"/>
<path d="M45.9653 43.0949C44.9831 43.225 44.1075 43.0454 43.3386 42.5562" stroke="#9A7270" stroke-width="2"/>
<path d="M41.4974 40.0152C39.3987 39.4792 37.9627 37.3765 37.5254 35.304C37.4605 34.9971 37.4929 34.7501 37.6227 34.5632" stroke="#9A7270" stroke-width="2"/>
<path d="M49.3972 43.8097C47.9612 44.2467 46.3772 44.7841 45.0718 45.0837C39.4785 46.3742 33.7238 45.5276 28.4585 43.2517" stroke="#F7AB93" stroke-width="2"/>
<path d="M50.0318 44.7979C46.3821 46.5625 42.5474 47.4677 38.5278 47.5135" stroke="#FDDBCE" stroke-width="2"/>
<path d="M38.528 47.5133C37.8871 47.4813 37.2413 47.4442 36.5906 47.402C33.6466 47.2124 30.8204 46.5376 28.112 45.3776C28.0899 45.3684 28.0656 45.3667 28.0424 45.3726C28.0192 45.3785 27.9983 45.3918 27.9826 45.4106C24.2773 49.9569 19.3653 58.0104 21.6733 64.2031" stroke="#FDC7AC" stroke-width="2"/>
<path d="M21.6732 64.2032C21.6278 64.2673 21.5883 64.227 21.5545 64.0823C21.5447 64.0392 21.5185 64.0149 21.4758 64.0094C21.1558 63.9655 21.0625 63.7744 20.6985 63.8102C20.6674 63.8138 20.6385 63.8065 20.6118 63.7882L20.3905 63.6342C20.3478 63.6049 20.3101 63.6104 20.2772 63.6507C20.2318 63.7057 20.183 63.7236 20.1305 63.7043C20.0887 63.6888 20.0621 63.659 20.0505 63.615L19.8838 62.9828C19.875 62.9498 19.8585 62.9448 19.8345 62.9677C19.8078 62.9924 19.7807 62.9961 19.7532 62.9787" stroke="#F7AB93" stroke-width="2"/>
<path d="M40.9934 60.759L40.636 60.8607C40.588 60.8745 40.5631 60.907 40.5614 60.9583C40.5543 61.2368 40.4894 61.3546 40.3667 61.3115" stroke="#FDC7AC" stroke-width="2"/>
<path d="M40.3691 68.88L41.3225 70.5553C41.346 70.5965 41.3809 70.6296 41.4226 70.6504C41.4644 70.6712 41.5112 70.6788 41.5572 70.6721C41.6031 70.6655 41.6461 70.645 41.6808 70.6132C41.7154 70.5814 41.7401 70.5397 41.7518 70.4935C41.8745 69.9996 41.8705 69.5149 41.7398 69.0394C41.7335 69.0168 41.7335 68.9927 41.7397 68.9701C41.746 68.9474 41.7583 68.927 41.7752 68.9111C41.7921 68.8952 41.813 68.8845 41.8355 68.8803C41.858 68.876 41.8812 68.8783 41.9025 68.8869C42.6531 69.1892 42.6878 70.0578 42.4411 70.7175C42.4374 70.7264 42.4366 70.7364 42.4389 70.7459C42.4413 70.7554 42.4466 70.7637 42.4541 70.7697C42.4616 70.7757 42.4708 70.779 42.4803 70.779C42.4898 70.779 42.499 70.7757 42.5065 70.7697C43.0731 70.3547 43.3505 69.9355 43.3091 69.1934C43.3079 69.171 43.3132 69.1488 43.3244 69.1297C43.3356 69.1105 43.3521 69.0952 43.3718 69.0859C43.3916 69.0765 43.4135 69.0735 43.4349 69.0773C43.4563 69.081 43.4762 69.0913 43.4918 69.1068L43.8025 69.4119C43.8363 69.4458 43.858 69.487 43.8678 69.5356C43.9425 69.8975 44.1038 70.1723 44.3518 70.3601" stroke="#FFEBDD" stroke-width="2"/>
<path d="M38.4853 71.3373L38.5919 71.0913C38.6006 71.0714 38.6032 71.0492 38.5994 71.0276C38.5955 71.0061 38.5855 70.9861 38.5706 70.9703C36.4346 68.6848 35.3159 65.3054 34.7506 62.22C34.7346 62.1293 34.7101 62.0501 34.6772 61.9823C34.6721 61.9712 34.6634 61.9622 34.6527 61.9568C34.642 61.9514 34.6299 61.9498 34.6182 61.9524C34.6066 61.9549 34.5961 61.9614 34.5884 61.9708C34.5807 61.9802 34.5763 61.992 34.5759 62.0042C34.5404 62.9892 34.4368 63.9691 34.2652 64.9439C34.2341 65.1226 34.2501 65.3443 34.3132 65.6091C34.3239 65.6558 34.3092 65.6911 34.2692 65.7149C34.2479 65.7277 34.223 65.736 34.1946 65.7396" stroke="#FDC7AC" stroke-width="2"/>
<path d="M32.7507 62.7435C31.9338 61.2611 30.8093 60.1021 29.3773 59.2665C28.0662 58.5015 26.6653 58.1932 25.1747 58.3416C25.1715 58.3413 25.1684 58.3417 25.1653 58.3427C25.1623 58.3437 25.1595 58.3453 25.1571 58.3474C25.1547 58.3495 25.1527 58.3521 25.1513 58.355C25.1498 58.3579 25.1489 58.361 25.1487 58.3643C25.1484 58.3675 25.1488 58.3708 25.1497 58.3739C25.1507 58.377 25.1522 58.3799 25.1543 58.3824C25.1563 58.3849 25.1588 58.3869 25.1616 58.3884C25.1645 58.3899 25.1675 58.3908 25.1707 58.3911C28.008 59.1318 30.9627 61.4228 30.62 64.7872C30.4133 66.8157 28.828 68.1268 26.864 68.1446C24.4907 68.1652 22.5413 66.3704 21.6733 64.2031" stroke="#F9BBA2" stroke-width="2"/>
<path d="M51.2598 52.4321L51.1532 52.4761C51.1158 52.4917 51.0914 52.5192 51.0798 52.5586C50.2585 55.2234 48.9812 57.6257 46.9398 59.5058C46.8518 59.5873 46.8336 59.5731 46.8852 59.4632C47.4105 58.3445 47.6052 56.9372 47.6198 55.7003C47.6207 55.6279 47.6016 55.6215 47.5625 55.681C47.3185 56.048 47.0852 56.5097 46.8625 56.8093C45.4047 58.7783 43.4483 60.0949 40.9932 60.7591" stroke="#FDDBCE" stroke-width="2"/>
<path d="M40.9932 60.7591C42.4296 59.4389 43.3109 57.9038 43.6372 56.1538C43.6396 56.1409 43.6384 56.1276 43.6335 56.1154C43.6287 56.1033 43.6206 56.0929 43.6101 56.0854C43.5996 56.078 43.5873 56.0738 43.5746 56.0735C43.5618 56.0732 43.5493 56.0768 43.5385 56.0837C43.1412 56.3485 42.7194 56.5629 42.2732 56.7269C42.1878 56.758 42.1634 56.731 42.1998 56.6458C43.8278 52.909 41.3238 49.5914 38.5278 47.5134" stroke="#FFEBDD" stroke-width="2"/>
<path d="M51.4306 55.2852C51.3639 55.7918 51.3163 56.288 51.2879 56.7735C51.2172 57.9898 49.0479 60.6725 48.2186 61.5974C48.1732 61.6478 48.1572 61.7316 48.1706 61.8489C48.5079 64.8367 49.2532 68.4168 51.3759 70.5786C51.4114 70.6153 51.4181 70.6569 51.3959 70.7037L51.3252 70.8521" stroke="#FDC7AC" stroke-width="2"/>
<path d="M46.1173 64.3392C46.1173 64.2439 46.1507 64.1445 46.2173 64.041C46.244 63.9988 46.2355 63.9663 46.192 63.9434C45.972 63.8293 45.7773 63.7881 45.544 63.9187C44.3751 64.5737 43.2 65.2165 42.0187 65.8468C41.7133 66.009 41.404 66.2591 41.0667 66.4309" stroke="#F7AB93" stroke-width="2"/>
<path d="M52.9346 68.4265C53.2617 68.9405 53.5381 69.4971 53.7639 70.0963C53.7777 70.131 53.8021 70.16 53.8332 70.1788C54.4546 70.5471 54.4906 69.0546 54.4252 68.7096C54.4172 68.6647 54.399 68.624 54.3706 68.5873L54.1906 68.3578C54.1435 68.2973 54.1559 68.279 54.2279 68.3028C54.8786 68.5158 55.0466 69.3239 55.0839 69.9218C55.0867 69.9664 55.1022 70.0092 55.1286 70.0448C55.1549 70.0804 55.1909 70.1071 55.2319 70.1217C55.273 70.1362 55.3173 70.1379 55.3593 70.1265C55.4013 70.1152 55.4391 70.0913 55.4679 70.0578C55.779 69.6987 55.9083 69.2708 55.8559 68.7742C55.8527 68.7508 55.8576 68.7269 55.8698 68.7069C55.882 68.6868 55.9007 68.6719 55.9225 68.6646C55.9444 68.6574 55.968 68.6584 55.9892 68.6673C56.0105 68.6763 56.0279 68.6928 56.0386 68.7137L56.4146 69.405C56.4279 69.4307 56.4488 69.4467 56.4772 69.4531L56.6132 69.4847C56.663 69.4967 56.6928 69.5283 56.7026 69.5796C56.7257 69.7051 56.8039 69.7619 56.9372 69.75" stroke="#FFEBDD" stroke-width="2"/>
<path d="M48.2666 14.1462C50.5955 15.4134 52.4706 17.1844 53.8919 19.4594" stroke="#956666" stroke-width="2"/>
<path d="M53.892 19.4594L55.0413 21.6336C55.068 21.6849 55.0964 21.6858 55.1266 21.6364C56.716 19.0307 56.2493 16.337 56.096 13.4729C55.9946 11.575 56.044 9.63991 56.084 7.71311C56.0849 7.65539 56.0577 7.63202 56.0026 7.64302C54.0222 8.04341 51.9551 8.77363 49.8013 9.83369C48.2893 10.5767 47.0915 11.6817 46.208 13.1486C46.203 13.1569 46.1998 13.1662 46.1987 13.1759C46.1976 13.1855 46.1985 13.1954 46.2014 13.2046C46.2043 13.2139 46.2092 13.2224 46.2156 13.2296C46.222 13.2368 46.2299 13.2424 46.2386 13.2461L48.2666 14.1463" stroke="#9C827F" stroke-width="2"/>
<path d="M53.8919 19.4594C54.5702 18.4626 54.8475 17.364 54.7239 16.1638C54.5186 14.1637 54.4608 12.2374 54.5506 10.3848C54.5799 9.7677 54.0933 9.70585 53.6319 9.8584C52.3777 10.2762 51.2528 10.8365 50.2573 11.5392C49.3497 12.1796 48.6862 13.0487 48.2666 14.1463" stroke="#F9BBA2" stroke-width="2"/>
<path d="M13.7573 52.6465C13.0506 53.0359 12.5257 53.5398 12.1826 54.1582" stroke="#9A7270" stroke-width="2"/>
<path d="M12.1827 54.1582C11.1947 55.8527 11.3653 57.9472 12.4293 59.5167C13.752 61.4673 15.5929 62.3001 17.952 62.0152C17.9973 62.0097 18.02 61.9836 18.02 61.9369C18.0369 60.7943 18.1311 59.6674 18.3027 58.556" stroke="#956666" stroke-width="2"/>
<path d="M18.3025 58.5561L18.8225 56.1977C18.834 56.1464 18.8154 56.1267 18.7665 56.1386L18.5025 56.2018" stroke="#9A7270" stroke-width="2"/>
<path d="M18.5027 56.2019C16.6987 56.5551 14.6947 56.5111 14.4467 54.095C14.4453 54.08 14.4485 54.0649 14.4557 54.0518C14.4629 54.0386 14.4738 54.0281 14.487 54.0215C14.5002 54.015 14.515 54.0127 14.5295 54.015C14.544 54.0173 14.5574 54.0242 14.568 54.0346C15.0667 54.5293 16.0387 55.0062 16.7 54.6393C17.0378 54.4515 17.16 54.1166 17.0667 53.6346C16.9467 53.0089 16.5467 52.5975 15.8667 52.4005C15.0933 52.1769 14.3902 52.259 13.7573 52.6465" stroke="#9C827F" stroke-width="2"/>
<path d="M18.5025 56.2019C18.5692 56.3338 18.5572 56.4304 18.4665 56.4918C17.0119 57.4662 15.0839 57.359 14.0265 55.8102C13.399 54.8912 13.3092 53.8366 13.7572 52.6465" stroke="#FDC7AC" stroke-width="2"/>
<path d="M18.3026 58.556C18.2422 58.6806 18.1511 58.6724 18.0293 58.5313C18.0026 58.5001 17.9702 58.4901 17.932 58.5011C15.9506 59.0645 13.904 58.3746 12.86 56.5028C12.5053 55.8651 12.3582 55.2421 12.4186 54.6337C12.4221 54.599 12.4146 54.5638 12.3973 54.5334L12.1826 54.1582" stroke="#F7AB93" stroke-width="2"/>
<path d="M45.9785 69.4132L45.9652 69.508C45.9589 69.5575 45.9798 69.5822 46.0278 69.5822L47.0652 69.5836C47.1132 69.5836 47.1278 69.5611 47.1092 69.5162L46.5012 68.0237C46.4825 67.9779 46.4518 67.9669 46.4092 67.9907L45.8692 68.2848C45.8283 68.3068 45.8118 68.3417 45.8198 68.3893C45.8723 68.7036 45.9247 69.0174 45.9772 69.3307C45.9816 69.3582 45.9821 69.3857 45.9785 69.4132Z" stroke="#F7CDDC" stroke-width="2"/>
<path d="M29.2626 15.695C29.8226 15.6968 30.375 15.7596 30.9199 15.8833C30.9661 15.8934 30.983 15.8755 30.9706 15.8297C30.4372 13.8122 28.9879 12.0049 27.3959 10.6966C27.0266 10.3929 26.3106 10.3654 26.2612 11.0017C26.1866 11.9692 26.0515 12.8657 25.8559 13.6912C25.5092 15.1563 24.1612 17.6424 24.3959 19.0085C24.6639 20.5683 25.9666 21.4493 27.4719 21.1208C27.4847 21.118 27.4963 21.1112 27.5052 21.1014C27.5141 21.0916 27.5199 21.0792 27.5218 21.0659C27.5237 21.0526 27.5216 21.039 27.5157 21.0269C27.5099 21.0149 27.5007 21.005 27.4892 20.9985C26.5572 20.479 25.5746 19.6104 25.6319 18.4175C25.6331 18.3895 25.6403 18.362 25.653 18.3372C25.6657 18.3123 25.6837 18.2907 25.7055 18.2739C25.7273 18.2571 25.7525 18.2454 25.7792 18.2398C25.8059 18.2343 25.8335 18.2349 25.8599 18.2416C27.3732 18.6278 29.0132 18.8078 30.5186 18.3364C30.6395 18.2989 30.6799 18.2178 30.6399 18.0932C30.3528 17.2026 29.8839 16.428 29.2332 15.7692C29.1835 15.7197 29.1932 15.695 29.2626 15.695Z" stroke="#F9BBA2" stroke-width="2"/>
<path d="M39.0492 28.24C39.0492 27.7713 38.8686 27.3218 38.547 26.9903C38.2254 26.6589 37.7893 26.4727 37.3345 26.4727C36.8798 26.4727 36.4436 26.6589 36.1221 26.9903C35.8005 27.3218 35.6199 27.7713 35.6199 28.24C35.6199 28.7088 35.8005 29.1583 36.1221 29.4898C36.4436 29.8212 36.8798 30.0074 37.3345 30.0074C37.7893 30.0074 38.2254 29.8212 38.547 29.4898C38.8686 29.1583 39.0492 28.7088 39.0492 28.24Z" stroke="#9C827F" stroke-width="2"/>
<path d="M45.2306 39.9245C44.8706 39.1233 44.7373 38.3605 43.6999 38.2712C42.931 38.2052 42.1715 38.1777 41.4213 38.1887C41.4075 38.1894 41.3943 38.195 41.3842 38.2046C41.374 38.2143 41.3675 38.2273 41.3657 38.2415C41.364 38.2556 41.3671 38.2699 41.3746 38.2819C41.3821 38.2938 41.3934 38.3027 41.4066 38.3069C42.8213 38.6848 42.7199 39.9643 43.4973 40.9662C44.7906 42.6319 47.3626 42.2636 47.7293 39.9588C47.8053 39.4806 47.7333 39.17 47.4653 38.7962C46.8413 37.9239 46.0662 37.7677 45.1399 38.3275C45.0999 38.3523 45.0888 38.3866 45.1066 38.4306C45.2924 38.9015 45.3764 39.3903 45.3586 39.897C45.3578 39.9126 45.352 39.9275 45.3421 39.9394C45.3322 39.9513 45.3188 39.9595 45.3041 39.9627C45.2893 39.9658 45.2741 39.9638 45.2608 39.9569C45.2474 39.9499 45.2368 39.9385 45.2306 39.9245Z" stroke="#956666" stroke-width="2"/>
<path d="M55.9439 6.06248C51.7973 6.82798 46.8279 8.56238 44.6599 12.6111C44.6048 12.7147 44.5213 12.7467 44.4093 12.7073C44.2626 12.656 44.1862 12.6299 44.1799 12.629C40.8955 11.984 37.703 12.3134 34.6026 13.6171C34.5798 13.6268 34.5542 13.6269 34.5311 13.6174C34.508 13.608 34.4892 13.5897 34.4786 13.5663C32.6199 9.5189 28.9346 6.90907 24.7839 5.62133C25.671 5.16139 26.7626 4.70786 28.0586 4.26075C37.3346 1.05583 47.0853 1.66603 55.9119 5.88657C55.9546 5.90673 55.971 5.94017 55.9613 5.9869L55.9439 6.06248Z" fill="#F7CDDC"/>
<path d="M24.7839 5.62127C28.9346 6.90901 32.6199 9.51885 34.4785 13.5662C34.4891 13.5896 34.5079 13.6079 34.531 13.6174C34.5541 13.6269 34.5797 13.6267 34.6025 13.6171C37.703 12.3133 40.8954 11.9839 44.1799 12.6289C44.1861 12.6299 44.2626 12.656 44.4092 12.7073C44.5212 12.7467 44.6048 12.7146 44.6599 12.6111C46.8279 8.56232 51.7972 6.82792 55.9439 6.06243C56.6212 5.94515 57.1692 6.23788 57.5879 6.94062C57.6465 7.66993 57.6492 8.78313 57.5959 10.2802C57.5532 11.4704 57.6039 13.0408 57.7479 14.9914C57.8492 16.3556 57.8874 17.27 57.8625 17.7345C57.747 19.8767 57.0563 21.803 55.7906 23.5136C55.7585 23.5573 55.7365 23.6081 55.7261 23.6621C55.7157 23.7161 55.7172 23.772 55.7305 23.8255C55.8852 24.4266 55.9999 25.0267 56.0746 25.6259C56.1532 26.265 56.1172 27.3149 56.2932 28.0062C56.5639 29.0823 57.4359 30.0375 58.5772 29.9646C59.5359 29.9014 60.2626 29.9701 60.0985 31.24C59.6839 34.4504 58.3319 37.353 55.9706 39.3952C55.9332 39.4273 55.923 39.4667 55.9399 39.5134C56.1052 39.9752 56.2065 40.2954 55.8212 40.6706C54.503 41.9542 53.0021 42.897 51.3186 43.499C51.3045 43.5039 51.2918 43.5121 51.2813 43.5229C51.2708 43.5338 51.2629 43.547 51.2582 43.5616C51.2534 43.5762 51.2519 43.5917 51.2538 43.6071C51.2558 43.6224 51.261 43.6371 51.2692 43.6501C53.5719 47.2701 55.2866 51.7985 54.5919 56.2059C54.4346 57.1968 54.4106 58.009 53.2586 57.8854C53.2123 57.8799 53.1892 57.9009 53.1892 57.9486C53.1954 60.7219 53.4328 63.4738 53.9012 66.2041C53.9101 66.2563 53.9403 66.2825 53.9919 66.2825C54.7292 66.2852 55.5985 66.2316 56.2319 66.3842C57.7252 66.747 58.8372 68.2079 58.4346 69.8832C58.4212 69.9372 58.4412 69.9666 58.4946 69.9711C60.1186 70.1132 61.6932 70.3367 63.2186 70.6418C63.7448 70.7673 64.223 70.9245 64.6532 71.1132C65.0106 71.2699 65.0603 71.4806 64.8026 71.7454C64.777 71.7717 64.7467 71.7927 64.7132 71.8072C64.2937 71.9951 63.8768 72.1288 63.4625 72.2085C61.8661 72.5155 60.2541 72.7477 58.6266 72.9053C56.7466 73.073 54.8599 73.1976 52.9666 73.2791C42.2692 73.7409 31.5532 73.6887 20.8692 72.9878C19.7412 72.8696 14.4092 72.4738 13.8799 71.5585C13.8636 71.5304 13.853 71.4992 13.8487 71.4668C13.8444 71.4344 13.8465 71.4014 13.8548 71.3699C13.8632 71.3383 13.8776 71.3088 13.8972 71.2831C13.9169 71.2574 13.9414 71.2361 13.9692 71.2204C14.7319 70.793 15.5852 70.6473 16.4025 70.492L20.6945 69.9134C20.7497 69.9061 20.7599 69.8804 20.7252 69.8364C19.311 68.0452 18.4674 65.9984 18.1945 63.696C18.1874 63.6419 18.1581 63.6186 18.1065 63.6259C14.6572 64.089 11.4065 62.1787 10.2959 58.7828C9.26655 55.6383 10.5652 51.8452 13.8439 50.8956C14.9679 50.5698 16.3039 50.6331 17.2532 51.3175C18.3345 52.0967 18.8639 53.2965 18.5479 54.6103C18.5363 54.6598 18.5545 54.6795 18.6025 54.6694L19.1599 54.5567C19.2123 54.5467 19.2497 54.516 19.2719 54.4647C21.2914 49.7929 24.0265 45.6159 27.4772 41.9336C27.5368 41.8704 27.5261 41.8241 27.4452 41.7948C26.6599 41.5131 23.6919 40.2418 23.5052 39.3897C23.2972 38.4332 24.1706 38.2243 24.8972 38.1322C24.9923 38.1203 24.9946 38.0983 24.9039 38.0663C23.1137 37.435 21.6479 36.4184 20.5065 35.0166C19.9652 34.3515 20.1772 33.4994 21.0532 33.4224C21.6337 33.3711 22.2168 33.3106 22.8025 33.241C22.8745 33.2319 22.8794 33.208 22.8172 33.1695C22.3439 32.8796 21.6519 32.5112 21.4306 31.9959C20.9986 30.9858 22.1265 30.8373 22.6985 30.5487C23.7679 30.01 24.0092 28.8899 23.9652 27.6723C23.9545 27.3713 24.0279 27.2022 23.7559 26.992C20.4012 24.3849 18.7932 20.1602 20.2292 15.9685C20.5906 14.9131 21.3559 13.5236 21.8266 12.3678C22.6026 10.4616 22.7692 8.62554 23.0239 6.52145C23.359 5.74542 23.9457 5.44536 24.7839 5.62127ZM23.6719 11.9267C23.335 12.9629 22.8914 14.0188 22.3412 15.0945C20.0852 19.5115 21.6932 23.4517 25.3519 26.1179C25.3818 26.1396 25.4071 26.1673 25.4264 26.1995C25.4456 26.2316 25.4584 26.2674 25.4639 26.3048C25.7612 28.2344 25.5466 30.5611 23.8306 31.7705C23.7906 31.7989 23.7928 31.8227 23.8372 31.842L24.1919 32.0014L26.2266 32.6927C26.2486 32.7001 26.2688 32.7123 26.286 32.7284C26.3031 32.7446 26.3167 32.7643 26.3259 32.7862C26.3351 32.8082 26.3397 32.8319 26.3393 32.8558C26.339 32.8797 26.3337 32.9033 26.3239 32.9249C26.0332 33.5589 25.5426 34.0418 24.8519 34.3735C24.2483 34.6272 23.5866 34.8036 22.8666 34.9026C22.8097 34.9108 22.8021 34.9356 22.8439 34.9768C24.5105 36.5985 26.9746 36.9764 29.1999 37.6526C29.2612 37.6709 29.2679 37.7021 29.2199 37.746C28.3817 38.5092 27.4234 39.0498 26.3452 39.3677C26.3367 39.3701 26.3292 39.3751 26.3235 39.382C26.3179 39.389 26.3145 39.3975 26.3138 39.4066C26.3131 39.4156 26.315 39.4246 26.3195 39.4324C26.3239 39.4402 26.3306 39.4464 26.3386 39.4502C27.6106 40.0815 28.9297 40.5817 30.2959 40.951C30.3052 40.9533 30.3137 40.9581 30.3207 40.9648C30.3277 40.9715 30.3329 40.9799 30.3358 40.9893C30.3388 40.9986 30.3393 41.0086 30.3375 41.0183C30.3356 41.0279 30.3314 41.0369 30.3252 41.0444L29.4266 42.1411L28.4585 43.2516C23.8119 48.3613 19.0319 55.5737 19.7532 62.9786C20.0332 66.9105 22.4719 71.0033 26.7319 70.984C29.3852 70.9703 31.7626 70.896 34.3079 70.1539C34.3164 70.1514 34.3242 70.1469 34.3308 70.1408C34.3374 70.1346 34.3426 70.1271 34.3459 70.1186C34.3492 70.1101 34.3507 70.101 34.3501 70.0919C34.3495 70.0828 34.3469 70.0739 34.3426 70.066C33.3572 68.2711 32.8079 66.6095 32.0239 64.335C31.7292 63.4775 31.7066 62.8783 32.7506 62.7436C32.9772 62.8599 33.1466 63.0349 33.2586 63.2686C33.5723 63.9273 33.8843 64.751 34.1945 65.7396C34.9079 67.8162 36.0066 70.951 38.4852 71.3372C39.5217 71.3995 40.9043 71.41 42.6332 71.3688C43.5194 71.3477 44.0923 71.0115 44.3519 70.3601C44.6399 69.1534 44.0559 68.5089 42.9519 68.3618C41.9826 68.2326 41.0199 68.1089 40.3692 68.8799C40.2341 68.9331 40.1265 68.8726 40.0465 68.6985C39.8883 68.3522 39.7177 67.7053 39.5346 66.758C38.9546 63.751 38.7079 60.689 38.5892 57.6284C38.575 57.2637 38.5937 57.0127 38.6452 56.8752C38.9492 56.0602 40.1239 56.2307 40.1559 57.282C40.1985 58.6215 40.2688 59.9647 40.3666 61.3115C40.4981 62.991 40.7314 64.6974 41.0666 66.4309L41.1532 66.8198C41.1639 66.872 41.195 66.8959 41.2465 66.8913C42.1808 66.8097 43.103 66.867 44.0132 67.0631C44.1892 67.1016 44.3972 67.2307 44.5959 67.2816C44.6421 67.2926 44.6848 67.2848 44.7239 67.2582C45.0865 67.0118 45.4283 66.7378 45.7492 66.4364C46.2332 65.9815 45.0719 64.9205 46.1172 64.3392C47.0826 64.0313 47.2159 64.8916 47.4092 65.5939C47.9639 67.6183 48.8906 70.5057 51.3252 70.8521C52.5759 70.9217 53.8199 70.9432 55.0572 70.9167C55.8612 70.9002 56.6572 70.5731 56.9372 69.7499C57.3172 67.7791 55.3772 67.654 54.0452 67.7928C53.5839 67.8409 53.2959 68.1433 52.9346 68.4264C52.8208 68.2349 52.7466 68.0741 52.7119 67.944C52.3288 66.4863 52.067 65.0057 51.9266 63.5022C51.6332 60.3784 51.6145 57.4785 51.4305 55.2851L51.2599 52.432C51.2128 52.3844 51.1941 52.3459 51.2039 52.3166C51.2208 52.268 51.2488 52.2589 51.2879 52.2891C51.9883 52.8297 52.5866 53.4706 53.0826 54.2118C53.1288 54.2805 53.1519 54.2732 53.1519 54.1898C53.1746 50.8571 51.7612 47.4872 50.0319 44.7977L49.3972 43.8095L48.6305 42.6991C50.2119 42.3234 51.6941 41.6876 53.0772 40.7915C53.1243 40.7613 53.1203 40.743 53.0652 40.7366L52.1305 40.628C51.6568 40.617 51.2621 40.5222 50.9465 40.3435C50.8799 40.305 50.8839 40.2766 50.9585 40.2583C52.7283 39.8066 54.2723 38.9431 55.5905 37.6677C55.5998 37.6584 55.6061 37.6464 55.6088 37.6333C55.6114 37.6202 55.6102 37.6067 55.6052 37.5944C55.6003 37.5822 55.592 37.5719 55.5812 37.5649C55.5705 37.5578 55.558 37.5544 55.5452 37.555L53.8519 37.6086C53.8387 37.6096 53.8257 37.6059 53.8149 37.5981C53.8041 37.5903 53.7962 37.5789 53.7926 37.5658C53.789 37.5527 53.7899 37.5388 53.7951 37.5263C53.8003 37.5138 53.8095 37.5036 53.8212 37.4973C55.7505 36.3594 57.1226 35.363 58.1065 33.2204C58.1116 33.2092 58.1136 33.1968 58.1123 33.1846C58.111 33.1723 58.1065 33.1606 58.0992 33.1508C58.0919 33.1411 58.0821 33.1335 58.071 33.1291C58.0598 33.1246 58.0477 33.1234 58.0359 33.1256C57.4946 33.2218 56.9501 33.2511 56.4026 33.2135C56.3466 33.2089 56.3408 33.1892 56.3852 33.1544C56.9666 32.6936 57.4914 32.1709 57.9599 31.5863C57.9892 31.5497 57.9808 31.5272 57.9346 31.519C56.939 31.344 56.1439 30.8712 55.5492 30.1007C54.9288 29.212 54.6097 28.2518 54.5919 27.2201C54.5079 22.3385 51.6865 17.9105 47.5625 15.6524C43.1239 13.224 37.9545 13.4054 33.5492 15.9314C33.503 15.958 33.4746 15.9447 33.4639 15.8916C32.5599 11.5061 28.5479 8.55682 24.6212 7.30206C24.6098 7.29829 24.5977 7.2973 24.5858 7.29919C24.5739 7.30107 24.5626 7.30577 24.5527 7.31294C24.5428 7.3201 24.5345 7.32953 24.5286 7.34051C24.5227 7.35149 24.5193 7.36372 24.5186 7.37628C24.4332 8.93201 24.151 10.4488 23.6719 11.9267ZM48.2666 14.1462C50.5954 15.4133 52.4706 17.1844 53.8919 19.4593L55.0412 21.6335C55.0679 21.6848 55.0963 21.6857 55.1266 21.6362C56.7159 19.0305 56.2492 16.3369 56.0959 13.4728C55.9945 11.5748 56.0439 9.63979 56.0839 7.71299C56.0848 7.65527 56.0577 7.6319 56.0026 7.6429C54.0221 8.04328 51.955 8.77351 49.8012 9.83357C48.2892 10.5766 47.0914 11.6816 46.2079 13.1484C46.2029 13.1567 46.1998 13.166 46.1986 13.1757C46.1975 13.1854 46.1984 13.1952 46.2013 13.2045C46.2043 13.2138 46.2091 13.2223 46.2155 13.2295C46.222 13.2366 46.2298 13.2423 46.2385 13.246L48.2666 14.1462ZM13.7572 52.6464C13.0505 53.0358 12.5257 53.5397 12.1825 54.1582C11.1945 55.8527 11.3652 57.9472 12.4292 59.5167C13.7519 61.4673 15.5928 62.3001 17.9519 62.0152C17.9972 62.0097 18.0199 61.9836 18.0199 61.9369C18.0368 60.7943 18.131 59.6674 18.3025 58.556L18.8226 56.1977C18.8341 56.1464 18.8154 56.1267 18.7666 56.1386L18.5025 56.2018C16.6985 56.555 14.6946 56.511 14.4466 54.095C14.4452 54.0799 14.4484 54.0648 14.4556 54.0517C14.4628 54.0386 14.4737 54.028 14.4869 54.0215C14.5001 54.0149 14.5149 54.0126 14.5294 54.0149C14.5438 54.0173 14.5573 54.0241 14.5679 54.0345C15.0666 54.5293 16.0385 55.0061 16.6999 54.6392C17.0377 54.4514 17.1599 54.1165 17.0665 53.6346C16.9465 53.0088 16.5465 52.5974 15.8665 52.4004C15.0932 52.1769 14.3901 52.2589 13.7572 52.6464ZM45.9786 69.4132L45.9652 69.508C45.959 69.5575 45.9799 69.5822 46.0279 69.5822L47.0652 69.5836C47.1132 69.5836 47.1279 69.5611 47.1092 69.5162L46.5012 68.0237C46.4826 67.9779 46.4519 67.9669 46.4092 67.9907L45.8692 68.2848C45.8283 68.3068 45.8119 68.3416 45.8199 68.3893C45.8723 68.7036 45.9248 69.0174 45.9772 69.3307C45.9817 69.3582 45.9821 69.3857 45.9786 69.4132Z" fill="#021927"/>
<path d="M23.0239 6.52148C22.7693 8.62557 22.6026 10.4617 21.8266 12.3679C21.3559 13.5237 20.5906 14.9131 20.2293 15.9686C18.7933 20.1603 20.4013 24.3849 23.7559 26.992C24.0279 27.2023 23.9546 27.3713 23.9653 27.6723C24.0093 28.8899 23.7679 30.01 22.6986 30.5488C22.1266 30.8374 20.9986 30.9858 21.4306 31.9959C21.6519 32.5113 22.3439 32.8796 22.8173 33.1696C22.8795 33.2081 22.8746 33.2319 22.8026 33.2411C22.2168 33.3107 21.6337 33.3712 21.0533 33.4225C20.1773 33.4994 19.9653 34.3515 20.5066 35.0167C21.6479 36.4185 23.1137 37.435 24.9039 38.0663C24.9946 38.0984 24.9924 38.1204 24.8973 38.1323C24.1706 38.2243 23.2973 38.4332 23.5053 39.3898C23.6919 40.2418 26.6599 41.5131 27.4453 41.7948C27.5261 41.8242 27.5368 41.8704 27.4773 41.9336C24.0266 45.6159 21.2915 49.7929 19.2719 54.4647C19.2497 54.516 19.2124 54.5467 19.1599 54.5568L18.6026 54.6695C18.5546 54.6796 18.5364 54.6599 18.5479 54.6104C18.8639 53.2965 18.3346 52.0967 17.2533 51.3175C16.3039 50.6331 14.9679 50.5699 13.8439 50.8956C10.5653 51.8452 9.26659 55.6384 10.2959 58.7828C11.4066 62.1788 14.6573 64.0891 18.1066 63.6259C18.1581 63.6186 18.1875 63.642 18.1946 63.696C18.4675 65.9985 19.311 68.0453 20.7253 69.8365C20.7599 69.8805 20.7497 69.9061 20.6946 69.9135L16.4026 70.492C13.6408 68.2611 11.263 65.7227 9.26925 62.8769C-3.94941 44.0102 1.96792 18.1964 21.6679 7.09046C22.1346 6.82796 22.4946 6.56134 23.0239 6.52148Z" fill="#F7CDDC"/>
<path d="M63.2187 70.6419C61.6934 70.3368 60.1187 70.1133 58.4947 69.9712C58.4414 69.9667 58.4214 69.9373 58.4347 69.8833C58.8374 68.208 57.7254 66.7471 56.232 66.3843C55.5987 66.2317 54.7294 66.2853 53.992 66.2826C53.9405 66.2826 53.9102 66.2564 53.9014 66.2042C53.4329 63.4739 53.1956 60.722 53.1894 57.9487C53.1894 57.901 53.2125 57.88 53.2587 57.8855C54.4107 58.0091 54.4347 57.1969 54.592 56.206C55.2867 51.7986 53.572 47.2702 51.2694 43.6502C51.2612 43.6372 51.2559 43.6225 51.254 43.6072C51.2521 43.5918 51.2535 43.5763 51.2583 43.5617C51.2631 43.5471 51.271 43.5339 51.2814 43.523C51.2919 43.5122 51.3047 43.504 51.3187 43.4991C53.0022 42.8971 54.5031 41.9543 55.8214 40.6707C56.2067 40.2955 56.1054 39.9753 55.94 39.5135C55.9231 39.4668 55.9334 39.4274 55.9707 39.3953C58.332 37.3531 59.684 34.4505 60.0987 31.2401C60.2627 29.9702 59.536 29.9015 58.5774 29.9647C57.436 30.0376 56.564 29.0824 56.2934 28.0063C56.1174 27.315 56.1534 26.2651 56.0747 25.626C56 25.0268 55.8854 24.4267 55.7307 23.8256C55.7173 23.7721 55.7158 23.7162 55.7262 23.6622C55.7366 23.6082 55.7586 23.5574 55.7907 23.5137C57.0565 21.8031 57.7471 19.8767 57.8627 17.7346C57.8876 17.2701 57.8494 16.3557 57.748 14.9915C57.604 13.0409 57.5534 11.4705 57.596 10.2803C57.6494 8.78322 57.6467 7.67003 57.588 6.94072C57.6618 6.84085 57.7538 6.82115 57.864 6.88162C69.1734 13.0688 76.8534 24.385 77.7107 37.764C78.4974 50.0449 73.7307 61.8889 64.476 69.6923C64.0947 70.0129 63.6756 70.3295 63.2187 70.6419Z" fill="#F7CDDC"/>
<path d="M55.5494 30.1008C54.5556 30.1548 53.6485 30.3637 52.828 30.7275C52.7854 30.7458 52.7458 30.7403 52.7094 30.711L51.4107 29.6637C51.3796 29.639 51.3569 29.6074 51.3427 29.5689L51.316 29.5016C52.8374 29.059 53.2734 27.1693 51.8867 26.2486C51.3658 25.9022 50.8596 25.845 50.368 26.0768C49.4534 26.5083 49.1271 27.2761 49.3894 28.3801C49.26 28.3375 49.1427 28.3581 49.0067 28.3142C45.392 27.135 41.5027 28.2386 39.0454 31.2208C39.032 31.2371 39.0146 31.2493 38.9949 31.2563C38.9753 31.2633 38.954 31.2648 38.9334 31.2607C35.9454 30.6285 34.1694 32.5141 31.6454 33.5187C30.4685 33.9869 29.2565 34.2929 28.0094 34.4368C27.9865 34.4394 27.9652 34.4495 27.9485 34.4658C27.9318 34.4821 27.9208 34.5035 27.917 34.5268C27.9132 34.5502 27.9169 34.5741 27.9276 34.5951C27.9383 34.616 27.9553 34.6328 27.976 34.6429C28.9427 35.117 30.132 35.3095 31.1734 35.5582C31.2249 35.571 31.2262 35.588 31.1774 35.6091C29.752 36.2055 28.9147 36.5024 27.4534 36.5766C26.4374 36.1322 25.5703 35.3979 24.852 34.3735C25.5427 34.0419 26.0334 33.559 26.324 32.925C26.3339 32.9033 26.3391 32.8798 26.3395 32.8559C26.3398 32.832 26.3352 32.8083 26.3261 32.7863C26.3169 32.7644 26.3032 32.7447 26.2861 32.7285C26.269 32.7124 26.2487 32.7002 26.2267 32.6927L24.192 32.0015C24.544 31.75 24.8894 31.6112 25.156 31.2689C26.584 29.4425 26.7574 27.4992 26.9747 25.0625C26.9925 24.8637 27.0023 24.7093 27.004 24.5994C27.004 24.575 26.9973 24.5512 26.9848 24.5306C26.9724 24.5099 26.9545 24.4933 26.9334 24.4825C23.972 23.0148 22.0587 20.5589 22.696 16.9774C22.8071 16.3553 23.0396 15.5073 23.3934 14.4335C23.8094 13.1746 24.0387 12.0092 24.2987 10.7613C24.3014 10.7476 24.296 10.7375 24.2827 10.7311C24.2756 10.7274 24.2703 10.7293 24.2667 10.7366L23.832 11.8938C23.8116 11.9469 23.7756 11.9638 23.724 11.9446L23.672 11.9267C24.1511 10.4489 24.4334 8.9321 24.5187 7.37636C24.5194 7.36381 24.5228 7.35157 24.5288 7.3406C24.5347 7.32962 24.5429 7.32018 24.5528 7.31302C24.5627 7.30586 24.574 7.30116 24.5859 7.29927C24.5978 7.29739 24.6099 7.29837 24.6214 7.30215C28.548 8.5569 32.56 11.5062 33.464 15.8917C33.4747 15.9448 33.5031 15.9581 33.5494 15.9315C37.9547 13.4055 43.124 13.2241 47.5627 15.6525C51.6867 17.9105 54.508 22.3386 54.592 27.2202C54.6098 28.2519 54.9289 29.212 55.5494 30.1008ZM29.2627 15.6951C29.8227 15.697 30.3751 15.7597 30.92 15.8834C30.9663 15.8935 30.9831 15.8756 30.9707 15.8298C30.4374 13.8123 28.988 12.0051 27.396 10.6967C27.0267 10.393 26.3107 10.3655 26.2614 11.0018C26.1867 11.9693 26.0516 12.8659 25.856 13.6914C25.5094 15.1564 24.1614 17.6425 24.396 19.0086C24.664 20.5685 25.9667 21.4494 27.472 21.121C27.4848 21.1181 27.4964 21.1113 27.5053 21.1015C27.5142 21.0917 27.52 21.0793 27.5219 21.066C27.5238 21.0527 27.5217 21.0391 27.5159 21.0271C27.51 21.015 27.5008 21.0051 27.4894 20.9986C26.5574 20.4791 25.5747 19.6106 25.632 18.4177C25.6332 18.3896 25.6404 18.3622 25.6531 18.3373C25.6659 18.3125 25.6838 18.2909 25.7056 18.274C25.7274 18.2572 25.7526 18.2456 25.7793 18.24C25.806 18.2344 25.8336 18.235 25.86 18.2418C27.3734 18.6279 29.0134 18.808 30.5187 18.3366C30.6396 18.299 30.68 18.2179 30.64 18.0933C30.3529 17.2028 29.884 16.4281 29.2334 15.7693C29.1836 15.7199 29.1934 15.6951 29.2627 15.6951ZM39.0494 28.2399C39.0494 27.7712 38.8687 27.3217 38.5471 26.9902C38.2256 26.6588 37.7895 26.4726 37.3347 26.4726C36.8799 26.4726 36.4438 26.6588 36.1222 26.9902C35.8007 27.3217 35.62 27.7712 35.62 28.2399C35.62 28.7087 35.8007 29.1582 36.1222 29.4897C36.4438 29.8211 36.8799 30.0073 37.3347 30.0073C37.7895 30.0073 38.2256 29.8211 38.5471 29.4897C38.8687 29.1582 39.0494 28.7087 39.0494 28.2399Z" fill="#FFD7BB"/>
<path d="M53.892 19.4594C54.5702 18.4626 54.8475 17.3641 54.724 16.1638C54.5186 14.1637 54.4609 12.2374 54.5506 10.3848C54.58 9.76772 54.0933 9.70588 53.632 9.85843C52.3777 10.2762 51.2528 10.8365 50.2573 11.5392C49.3497 12.1797 48.6862 13.0487 48.2666 14.1463L46.2386 13.2461C46.2299 13.2424 46.222 13.2368 46.2156 13.2296C46.2092 13.2224 46.2043 13.2139 46.2014 13.2046C46.1985 13.1954 46.1976 13.1855 46.1987 13.1759C46.1998 13.1662 46.203 13.1569 46.208 13.1486C47.0915 11.6817 48.2893 10.5767 49.8013 9.83369C51.9551 8.77363 54.0222 8.04341 56.0026 7.64302C56.0577 7.63202 56.0849 7.65539 56.084 7.71311C56.044 9.63991 55.9946 11.575 56.096 13.4729C56.2493 16.337 56.716 19.0307 55.1266 21.6364C55.0964 21.6858 55.068 21.6849 55.0413 21.6336L53.892 19.4594Z" fill="#FFD7BB"/>
<path d="M53.8919 19.4594C52.4706 17.1845 50.5955 15.4134 48.2666 14.1463C48.6862 13.0487 49.3497 12.1796 50.2573 11.5392C51.2528 10.8365 52.3777 10.2762 53.6319 9.8584C54.0933 9.70585 54.5799 9.7677 54.5506 10.3848C54.4608 12.2374 54.5186 14.1637 54.7239 16.1638C54.8475 17.364 54.5702 18.4626 53.8919 19.4594Z" fill="#F29F89"/>
<path d="M29.2332 15.7695C29.8839 16.4282 30.3528 17.2029 30.6399 18.0934C30.6799 18.218 30.6395 18.2991 30.5186 18.3367C29.0132 18.8081 27.3732 18.628 25.8599 18.2419C25.8335 18.2351 25.8059 18.2345 25.7792 18.2401C25.7525 18.2457 25.7273 18.2573 25.7055 18.2741C25.6837 18.291 25.6657 18.3126 25.653 18.3374C25.6403 18.3623 25.6331 18.3897 25.6319 18.4178C25.5746 19.6107 26.5572 20.4792 27.4892 20.9987C27.5007 21.0052 27.5099 21.0151 27.5157 21.0272C27.5216 21.0392 27.5237 21.0528 27.5218 21.0661C27.5199 21.0794 27.5141 21.0918 27.5052 21.1016C27.4963 21.1115 27.4847 21.1182 27.4719 21.1211C25.9666 21.4495 24.6639 20.5686 24.3959 19.0087C24.1612 17.6427 25.5092 15.1565 25.8559 13.6915C26.0515 12.866 26.1866 11.9694 26.2612 11.0019C26.3106 10.3656 27.0266 10.3931 27.3959 10.6968C28.9879 12.0052 30.4372 13.8124 30.9706 15.8299C30.983 15.8757 30.9661 15.8936 30.9199 15.8835C30.375 15.7598 29.8226 15.6971 29.2626 15.6952C29.1932 15.6952 29.1835 15.72 29.2332 15.7695Z" fill="#F29F89"/>
<path d="M24.192 32.0015L23.8374 31.842C23.7929 31.8228 23.7907 31.799 23.8307 31.7706C25.5467 30.5612 25.7614 28.2344 25.464 26.3049C25.4585 26.2675 25.4458 26.2317 25.4265 26.1995C25.4073 26.1674 25.3819 26.1397 25.352 26.118C21.6934 23.4518 20.0854 19.5116 22.3414 15.0946C22.8916 14.0189 23.3351 12.963 23.672 11.9267L23.724 11.9446C23.7756 11.9638 23.8116 11.9469 23.832 11.8938L24.2667 10.7366C24.2702 10.7292 24.2756 10.7274 24.2827 10.7311C24.296 10.7375 24.3014 10.7476 24.2987 10.7613C24.0387 12.0092 23.8094 13.1746 23.3934 14.4335C23.0396 15.5073 22.8071 16.3553 22.696 16.9774C22.0587 20.5589 23.972 23.0148 26.9334 24.4825C26.9545 24.4933 26.9724 24.5099 26.9848 24.5306C26.9973 24.5512 27.004 24.575 27.004 24.5994C27.0022 24.7093 26.9925 24.8637 26.9747 25.0625C26.7574 27.4992 26.584 29.4425 25.156 31.2689C24.8894 31.6112 24.544 31.75 24.192 32.0015Z" fill="#FBB79D"/>
<path d="M51.3161 29.5015C51.2645 29.5253 51.2058 29.5184 51.1401 29.4809C50.7276 29.2454 50.1441 28.8785 49.3894 28.38C49.1272 27.276 49.4534 26.5082 50.3681 26.0767C50.8596 25.8449 51.3658 25.9021 51.8867 26.2485C53.2734 27.1693 52.8374 29.0589 51.3161 29.5015Z" fill="#021927"/>
<path d="M37.3348 30.0074C38.2818 30.0074 39.0495 29.2161 39.0495 28.24C39.0495 27.2639 38.2818 26.4727 37.3348 26.4727C36.3878 26.4727 35.6201 27.2639 35.6201 28.24C35.6201 29.2161 36.3878 30.0074 37.3348 30.0074Z" fill="#021927"/>
<path d="M49.3894 28.3801C50.144 28.8785 50.7276 29.2455 51.14 29.4809C51.2058 29.5185 51.2645 29.5254 51.316 29.5016L51.3427 29.5689C51.3569 29.6074 51.3796 29.639 51.4107 29.6637L52.7094 30.711C52.7458 30.7403 52.7854 30.7458 52.828 30.7274C53.6485 30.3637 54.5556 30.1548 55.5494 30.1008C56.144 30.8713 56.9391 31.3441 57.9347 31.5191C57.9809 31.5273 57.9894 31.5498 57.96 31.5864C57.4916 32.1709 56.9667 32.6936 56.3854 33.1545C56.3409 33.1893 56.3467 33.209 56.4027 33.2136C56.9503 33.2512 57.4947 33.2218 58.036 33.1256C58.0478 33.1235 58.06 33.1247 58.0711 33.1291C58.0823 33.1336 58.092 33.1411 58.0993 33.1509C58.1066 33.1607 58.1112 33.1724 58.1125 33.1846C58.1138 33.1969 58.1118 33.2093 58.1067 33.2205C57.1227 35.363 55.7507 36.3594 53.8214 37.4974C53.8097 37.5037 53.8005 37.5139 53.7953 37.5264C53.79 37.5389 53.7892 37.5528 53.7928 37.5659C53.7964 37.5789 53.8042 37.5903 53.815 37.5981C53.8258 37.6059 53.8389 37.6097 53.852 37.6087L55.5454 37.5551C55.5581 37.5545 55.5707 37.5579 55.5814 37.5649C55.5921 37.572 55.6005 37.5823 55.6054 37.5945C55.6103 37.6067 55.6115 37.6203 55.6089 37.6334C55.6063 37.6464 55.5999 37.6584 55.5907 37.6678C54.2725 38.9431 52.7285 39.8067 50.9587 40.2584C50.884 40.2767 50.88 40.3051 50.9467 40.3436C51.2623 40.5222 51.6569 40.6171 52.1307 40.6281C52.0178 40.8113 51.8063 40.864 51.496 40.7861C51.4717 40.7798 51.4458 40.7808 51.4214 40.7889L48.432 41.8636C48.3911 41.8782 48.3556 41.87 48.3254 41.8388C48.2791 41.7903 48.2258 41.7568 48.1654 41.7385C48.504 41.165 48.7147 40.5273 48.7974 39.8255C48.7995 39.8082 48.8052 39.7915 48.8142 39.7766C48.8232 39.7617 48.8352 39.7488 48.8494 39.7389C49.6974 39.1571 50.3694 38.4076 50.8654 37.4905C50.8861 37.4512 50.9189 37.4199 50.9587 37.4012C52.0191 36.9064 52.8138 36.1262 53.3427 35.0607C53.616 34.511 52.8454 33.9599 52.4174 34.6855C51.3974 36.4144 49.4507 37.3572 47.6254 36.1849C47.5729 36.1519 47.5174 36.1171 47.4587 36.0804C47.4378 36.0677 47.4204 36.0499 47.4081 36.0285C47.3957 36.0071 47.3888 35.9829 47.388 35.9581L47.3587 34.9975C47.3569 34.9462 47.3805 34.9164 47.4294 34.9081C49.076 34.6388 50.7467 33.0556 50.06 31.2305C49.46 29.6335 45.3854 29.7778 44.3867 30.8511C43.748 31.5383 43.9587 32.8645 44.4067 33.5338C44.8894 34.253 45.5796 34.7144 46.4774 34.9178C46.5183 34.9269 46.5423 34.9521 46.5494 34.9933C46.6214 35.3846 46.5454 35.7208 46.3214 36.0021C44.6907 38.0498 41.4427 37.3256 39.5467 36.0708C39.0471 35.7401 38.6667 35.3443 38.4054 34.8834C38.196 34.5137 38.0027 34.489 37.6227 34.5632C35.9734 34.0451 36.672 36.8102 37.0854 37.507C37.7449 38.6229 38.7405 39.3962 40.072 39.8268C40.6418 40.011 41.1169 40.0738 41.4974 40.0151C41.6876 40.3624 41.8934 40.754 42.1147 41.1902C42.3431 41.6419 42.7511 42.0972 43.3387 42.5562C41.096 42.7331 38.8925 42.6451 36.728 42.2924C35.896 42.1563 34.9947 41.8237 34.1267 41.6038C34.1192 41.6018 34.1125 41.5976 34.1072 41.5918C34.1019 41.586 34.0983 41.5788 34.0969 41.5711C34.0955 41.5634 34.0963 41.5555 34.0992 41.5484C34.1021 41.5412 34.1071 41.5352 34.1134 41.531L35.4107 40.6624C35.4774 40.6175 35.4711 40.5891 35.392 40.5772C34.0178 40.3756 32.6858 40.0101 31.396 39.4805C31.276 39.431 31.2765 39.3829 31.3974 39.3362C31.9476 39.1236 32.4729 38.8598 32.9734 38.5446C33.0329 38.5079 33.028 38.4864 32.9587 38.48C31.7934 38.3737 30.6743 38.0824 29.6014 37.6059C29.5649 37.5894 29.536 37.5642 29.5147 37.5303C29.476 37.4685 29.4387 37.4369 29.3627 37.4163C28.7574 37.2417 27.9334 37.0218 27.4534 36.5766C28.9147 36.5023 29.752 36.2055 31.1774 35.609C31.2263 35.588 31.2249 35.571 31.1734 35.5582C30.132 35.3094 28.9427 35.117 27.976 34.6429C27.9553 34.6328 27.9383 34.616 27.9276 34.5951C27.917 34.5741 27.9132 34.5501 27.917 34.5268C27.9208 34.5035 27.9318 34.482 27.9485 34.4658C27.9652 34.4495 27.9866 34.4393 28.0094 34.4367C29.2565 34.2929 30.4685 33.9869 31.6454 33.5187C34.1694 32.5141 35.9454 30.6285 38.9334 31.2607C38.954 31.2648 38.9753 31.2633 38.995 31.2563C39.0146 31.2493 39.032 31.237 39.0454 31.2208C41.5027 28.2386 45.392 27.135 49.0067 28.3141C49.1427 28.3581 49.26 28.3375 49.3894 28.3801Z" fill="#FFFEFE"/>
<path d="M48.1654 41.7386C47.6231 42.5018 46.8898 42.954 45.9654 43.0951C44.9831 43.2252 44.1076 43.0456 43.3387 42.5564C42.7511 42.0973 42.3431 41.642 42.1147 41.1903C41.8934 40.7542 41.6876 40.3625 41.4974 40.0152C39.3987 39.4792 37.9627 37.3765 37.5254 35.3041C37.4605 34.9971 37.4929 34.7502 37.6227 34.5633C38.0027 34.4891 38.196 34.5138 38.4054 34.8835C38.6667 35.3444 39.0471 35.7402 39.5467 36.0709C41.4427 37.3257 44.6907 38.05 46.3214 36.0022C46.5454 35.7209 46.6214 35.3847 46.5494 34.9935C46.5423 34.9522 46.5183 34.927 46.4774 34.9179C45.5796 34.7145 44.8894 34.2532 44.4067 33.5339C43.9587 32.8646 43.748 31.5384 44.3867 30.8513C45.3854 29.7779 49.46 29.6336 50.06 31.2306C50.7467 33.0557 49.076 34.6389 47.4294 34.9083C47.3805 34.9165 47.3569 34.9463 47.3587 34.9976L47.388 35.9582C47.3888 35.983 47.3957 36.0072 47.408 36.0286C47.4204 36.05 47.4378 36.0679 47.4587 36.0806C47.5174 36.1172 47.5729 36.152 47.6254 36.185C49.4507 37.3573 51.3974 36.4145 52.4174 34.6856C52.8454 33.96 53.616 34.5111 53.3427 35.0608C52.8138 36.1264 52.0191 36.9065 50.9587 37.4013C50.9189 37.42 50.8861 37.4513 50.8654 37.4906C50.3694 38.4077 49.6974 39.1572 48.8494 39.739C48.8351 39.7489 48.8232 39.7618 48.8142 39.7767C48.8052 39.7917 48.7995 39.8083 48.7974 39.8256C48.7147 40.5274 48.504 41.1651 48.1654 41.7386ZM45.2307 39.9245C44.8707 39.1233 44.7374 38.3606 43.7 38.2712C42.9311 38.2053 42.1716 38.1778 41.4214 38.1888C41.4076 38.1894 41.3944 38.195 41.3843 38.2047C41.3741 38.2143 41.3676 38.2274 41.3658 38.2415C41.364 38.2556 41.3672 38.2699 41.3747 38.2819C41.3822 38.2939 41.3935 38.3028 41.4067 38.307C42.8214 38.6849 42.72 39.9644 43.4974 40.9663C44.7907 42.6319 47.3627 42.2636 47.7294 39.9589C47.8054 39.4806 47.7334 39.17 47.4654 38.7962C46.8414 37.924 46.0663 37.7678 45.14 38.3276C45.1 38.3523 45.0889 38.3867 45.1067 38.4306C45.2925 38.9016 45.3765 39.3904 45.3587 39.897C45.3579 39.9126 45.3521 39.9275 45.3422 39.9394C45.3323 39.9514 45.3189 39.9595 45.3042 39.9627C45.2894 39.9659 45.2742 39.9638 45.2609 39.9569C45.2475 39.95 45.2369 39.9386 45.2307 39.9245Z" fill="#021927"/>
<path d="M24.8519 34.3735C25.5701 35.3979 26.4373 36.1322 27.4533 36.5766C27.9333 37.0219 28.7573 37.2417 29.3626 37.4163C29.4386 37.4369 29.4759 37.4685 29.5146 37.5304C29.5359 37.5643 29.5648 37.5894 29.6013 37.6059C30.6741 38.0824 31.7933 38.3737 32.9586 38.48C33.0279 38.4864 33.0328 38.508 32.9732 38.5446C32.4728 38.8598 31.9475 39.1237 31.3973 39.3362C31.2764 39.3829 31.2759 39.431 31.3959 39.4805C32.6857 40.0101 34.0177 40.3757 35.3919 40.5772C35.471 40.5891 35.4772 40.6175 35.4106 40.6624L34.1133 41.531C34.1069 41.5352 34.102 41.5413 34.0991 41.5484C34.0962 41.5555 34.0954 41.5634 34.0968 41.5711C34.0982 41.5788 34.1018 41.586 34.1071 41.5918C34.1123 41.5976 34.1191 41.6018 34.1266 41.6038C34.9946 41.8237 35.8959 42.1563 36.7279 42.2924C38.8924 42.6451 41.0959 42.7331 43.3386 42.5562C44.1075 43.0455 44.983 43.2251 45.9653 43.095C45.9128 43.1729 45.8821 43.243 45.8732 43.3053C40.2875 44.2819 34.8053 43.8939 29.4266 42.1412L30.3253 41.0445C30.3314 41.037 30.3357 41.028 30.3375 41.0183C30.3394 41.0087 30.3388 40.9987 30.3359 40.9893C30.3329 40.98 30.3277 40.9715 30.3207 40.9648C30.3137 40.9581 30.3052 40.9534 30.2959 40.951C28.9297 40.5818 27.6106 40.0816 26.3386 39.4503C26.3306 39.4465 26.3239 39.4403 26.3195 39.4325C26.3151 39.4247 26.3131 39.4157 26.3138 39.4066C26.3145 39.3976 26.318 39.3891 26.3236 39.3821C26.3292 39.3752 26.3368 39.3702 26.3453 39.3678C27.4235 39.0499 28.3817 38.5093 29.2199 37.7461C29.2679 37.7021 29.2613 37.671 29.1999 37.6527C26.9746 36.9765 24.5106 36.5986 22.8439 34.9769C22.8021 34.9356 22.8097 34.9109 22.8666 34.9027C23.5866 34.8037 24.2484 34.6273 24.8519 34.3735Z" fill="#FBB79D"/>
<path d="M37.6227 34.5633C37.4929 34.7502 37.4605 34.9971 37.5253 35.304C37.9627 37.3765 39.3987 39.4792 41.4973 40.0152C41.1169 40.0738 40.6418 40.0111 40.072 39.8269C38.7404 39.3963 37.7449 38.623 37.0853 37.5071C36.672 36.8103 35.9733 34.0451 37.6227 34.5633Z" fill="#FFFEFE"/>
<path d="M45.2306 39.9245C45.2368 39.9385 45.2474 39.9499 45.2608 39.9569C45.2741 39.9638 45.2893 39.9658 45.3041 39.9627C45.3188 39.9595 45.3322 39.9513 45.3421 39.9394C45.352 39.9275 45.3578 39.9126 45.3586 39.897C45.3764 39.3903 45.2924 38.9015 45.1066 38.4306C45.0888 38.3866 45.0999 38.3523 45.1399 38.3275C46.0662 37.7677 46.8413 37.9239 47.4653 38.7962C47.7333 39.17 47.8053 39.4806 47.7293 39.9588C47.3626 42.2636 44.7906 42.6319 43.4973 40.9662C42.7199 39.9643 42.8213 38.6848 41.4066 38.3069C41.3934 38.3027 41.3821 38.2938 41.3746 38.2819C41.3671 38.2699 41.364 38.2556 41.3657 38.2415C41.3675 38.2273 41.374 38.2143 41.3842 38.2046C41.3943 38.195 41.4075 38.1894 41.4213 38.1887C42.1715 38.1777 42.931 38.2052 43.6999 38.2712C44.7373 38.3605 44.8706 39.1233 45.2306 39.9245Z" fill="#F29F89"/>
<path d="M52.1306 40.6282L53.0653 40.7367C53.1204 40.7432 53.1244 40.7615 53.0773 40.7917C51.6942 41.6878 50.212 42.3236 48.6306 42.6993C47.6426 42.7804 46.8333 43.1817 45.8733 43.3054C45.8822 43.243 45.9128 43.173 45.9653 43.0951C46.8897 42.954 47.6231 42.5018 48.1653 41.7386C48.2257 41.757 48.2791 41.7904 48.3253 41.839C48.3555 41.8701 48.3911 41.8783 48.432 41.8637L51.4213 40.789C51.4457 40.7809 51.4716 40.7799 51.496 40.7862C52.1306 40.6282 52.0177 40.8114 52.1306 40.6282Z" fill="#FFD7BB"/>
<path d="M29.4267 42.1411C34.8054 43.8938 40.2876 44.2818 45.8734 43.3052C46.8334 43.1815 47.6427 42.7802 48.6307 42.6991L49.3974 43.8095C47.9614 44.2466 46.3774 44.7839 45.0721 45.0835C39.4787 46.374 33.7241 45.5274 28.4587 43.2516L29.4267 42.1411Z" fill="#F29F89"/>
<path d="M28.4586 43.2517C33.7239 45.5276 39.4786 46.3742 45.0719 45.0837C46.3773 44.7841 47.9613 44.2467 49.3973 43.8097L50.0319 44.7978C46.3822 46.5624 42.5475 47.4677 38.5279 47.5135C37.8871 47.4814 37.2413 47.4443 36.5906 47.4022C33.6466 47.2125 30.8204 46.5377 28.1119 45.3778C28.0899 45.3686 28.0656 45.3668 28.0424 45.3727C28.0191 45.3786 27.9982 45.3919 27.9826 45.4108C24.2773 49.957 19.3653 58.0106 21.6733 64.2032C21.6279 64.2674 21.5884 64.2271 21.5546 64.0823C21.5448 64.0392 21.5186 64.015 21.4759 64.0095C21.1559 63.9655 21.0626 63.7745 20.6986 63.8102C20.6675 63.8139 20.6386 63.8065 20.6119 63.7882L20.3906 63.6343C20.3479 63.605 20.3102 63.6105 20.2773 63.6508C20.2319 63.7057 20.1831 63.7236 20.1306 63.7044C20.0888 63.6888 20.0622 63.659 20.0506 63.615L19.8839 62.9828C19.8751 62.9499 19.8586 62.9448 19.8346 62.9677C19.8079 62.9925 19.7808 62.9961 19.7533 62.9787C19.0319 55.5739 23.8119 48.3614 28.4586 43.2517Z" fill="#FBB79D"/>
<path d="M50.0321 44.7979C51.7614 47.4874 53.1747 50.8572 53.1521 54.19C53.1521 54.2733 53.129 54.2807 53.0827 54.212C52.5867 53.4707 51.9885 52.8298 51.2881 52.2893C51.249 52.259 51.221 52.2682 51.2041 52.3168C51.1943 52.3461 51.213 52.3846 51.2601 52.4322L51.1534 52.4762C51.1161 52.4918 51.0916 52.5193 51.0801 52.5587C50.2587 55.2235 48.9814 57.6258 46.9401 59.5058C46.8521 59.5874 46.8339 59.5732 46.8854 59.4632C47.4107 58.3445 47.6054 56.9372 47.6201 55.7003C47.621 55.628 47.6019 55.6216 47.5627 55.6811C47.3187 56.0481 47.0854 56.5098 46.8627 56.8094C45.405 58.7784 43.4485 60.095 40.9934 60.7592C42.4299 59.439 43.3112 57.9038 43.6374 56.1539C43.6399 56.141 43.6386 56.1277 43.6338 56.1155C43.629 56.1034 43.6209 56.0929 43.6104 56.0855C43.5999 56.078 43.5875 56.0739 43.5748 56.0736C43.5621 56.0733 43.5495 56.0769 43.5387 56.0838C43.1414 56.3486 42.7196 56.563 42.2734 56.727C42.1881 56.7581 42.1636 56.7311 42.2001 56.6459C43.8281 52.9091 41.3241 49.5915 38.5281 47.5135C42.5476 47.4677 46.3823 46.5625 50.0321 44.7979Z" fill="#FFFEFE"/>
<path d="M38.528 47.5133C41.324 49.5913 43.828 52.9089 42.2 56.6457C42.1635 56.7309 42.188 56.7579 42.2733 56.7268C42.7195 56.5628 43.1413 56.3484 43.5386 56.0836C43.5494 56.0767 43.562 56.0731 43.5747 56.0734C43.5874 56.0737 43.5998 56.0779 43.6103 56.0853C43.6208 56.0928 43.6289 56.1032 43.6337 56.1153C43.6385 56.1275 43.6398 56.1408 43.6373 56.1537C43.3111 57.9037 42.4298 59.4388 40.9933 60.7591L40.636 60.8608C40.588 60.8745 40.5631 60.907 40.5613 60.9583C40.5542 61.2369 40.4893 61.3546 40.3666 61.3115C40.2689 59.9647 40.1986 58.6215 40.156 57.282C40.124 56.2307 38.9493 56.0602 38.6453 56.8752C38.5938 57.0127 38.5751 57.2637 38.5893 57.6284C38.708 60.689 38.9547 63.751 39.5347 66.758C39.7178 67.7053 39.8884 68.3522 40.0466 68.6985C40.1266 68.8726 40.2342 68.9331 40.3693 68.8799L41.3226 70.5552C41.3462 70.5964 41.381 70.6295 41.4228 70.6503C41.4646 70.6711 41.5114 70.6787 41.5573 70.6721C41.6033 70.6654 41.6463 70.6449 41.6809 70.6131C41.7156 70.5813 41.7403 70.5397 41.752 70.4934C41.8747 69.9995 41.8706 69.5149 41.74 69.0393C41.7337 69.0167 41.7337 68.9927 41.7399 68.97C41.7462 68.9473 41.7584 68.9269 41.7754 68.911C41.7923 68.8951 41.8132 68.8845 41.8357 68.8802C41.8581 68.8759 41.8814 68.8782 41.9027 68.8868C42.6533 69.1891 42.688 70.0577 42.4413 70.7174C42.4375 70.7264 42.4368 70.7364 42.4391 70.7458C42.4415 70.7553 42.4468 70.7637 42.4543 70.7696C42.4618 70.7756 42.471 70.7789 42.4805 70.7789C42.49 70.7789 42.4992 70.7756 42.5066 70.7696C43.0733 70.3546 43.3507 69.9354 43.3093 69.1933C43.3081 69.1709 43.3134 69.1487 43.3246 69.1296C43.3358 69.1104 43.3523 69.0951 43.372 69.0858C43.3917 69.0765 43.4137 69.0735 43.4351 69.0772C43.4565 69.0809 43.4763 69.0912 43.492 69.1067L43.8027 69.4118C43.8364 69.4457 43.8582 69.4869 43.868 69.5355C43.9427 69.8974 44.104 70.1722 44.352 70.3601C44.0924 71.0115 43.5195 71.3477 42.6333 71.3688C40.9044 71.41 39.5218 71.3995 38.4853 71.3372L38.592 71.0912C38.6006 71.0713 38.6032 71.0492 38.5994 71.0276C38.5956 71.006 38.5856 70.986 38.5706 70.9703C36.4346 68.6848 35.316 65.3053 34.7506 62.22C34.7346 62.1293 34.7102 62.05 34.6773 61.9822C34.6721 61.9711 34.6635 61.9622 34.6528 61.9568C34.6421 61.9513 34.63 61.9498 34.6183 61.9523C34.6066 61.9548 34.5961 61.9613 34.5885 61.9707C34.5808 61.9801 34.5764 61.9919 34.576 62.0042C34.5404 62.9891 34.4369 63.969 34.2653 64.9439C34.2342 65.1225 34.2502 65.3443 34.3133 65.609C34.324 65.6558 34.3093 65.691 34.2693 65.7149C34.248 65.7277 34.2231 65.7359 34.1946 65.7396C33.8844 64.751 33.5724 63.9273 33.2586 63.2686C33.1466 63.0349 32.9773 62.8599 32.7506 62.7436C31.9338 61.2611 30.8093 60.1021 29.3773 59.2665C28.0662 58.5015 26.6653 58.1932 25.1746 58.3416C25.1715 58.3414 25.1683 58.3417 25.1653 58.3427C25.1623 58.3437 25.1595 58.3453 25.1571 58.3474C25.1547 58.3495 25.1527 58.3521 25.1512 58.355C25.1498 58.3579 25.1489 58.3611 25.1486 58.3643C25.1484 58.3675 25.1487 58.3708 25.1497 58.3739C25.1507 58.377 25.1522 58.3799 25.1543 58.3824C25.1563 58.3849 25.1588 58.3869 25.1616 58.3884C25.1644 58.3899 25.1675 58.3908 25.1706 58.3911C28.008 59.1319 30.9626 61.4228 30.62 64.7872C30.4133 66.8157 28.828 68.1268 26.864 68.1447C24.4907 68.1653 22.5413 66.3704 21.6733 64.2031C19.3653 58.0104 24.2773 49.9569 27.9826 45.4106C27.9983 45.3918 28.0192 45.3785 28.0424 45.3726C28.0656 45.3667 28.0899 45.3684 28.112 45.3776C30.8204 46.5376 33.6466 47.2124 36.5906 47.402C37.2413 47.4442 37.8871 47.4813 38.528 47.5133Z" fill="#FFD7BB"/>
<path d="M18.5028 56.2019C18.5694 56.3338 18.5574 56.4305 18.4668 56.4919C17.0121 57.4663 15.0841 57.3591 14.0268 55.8102C13.3992 54.8912 13.3094 53.8367 13.7574 52.6465C14.3903 52.259 15.0934 52.1769 15.8668 52.4005C16.5468 52.5975 16.9468 53.0089 17.0668 53.6346C17.1601 54.1166 17.0379 54.4515 16.7001 54.6393C16.0388 55.0062 15.0668 54.5293 14.5681 54.0346C14.5575 54.0242 14.5441 54.0174 14.5296 54.015C14.5151 54.0127 14.5003 54.015 14.4871 54.0215C14.474 54.0281 14.463 54.0387 14.4558 54.0518C14.4486 54.0649 14.4455 54.08 14.4468 54.095C14.6948 56.5111 16.6988 56.5551 18.5028 56.2019Z" fill="#FFD7BB"/>
<path d="M51.26 52.4321L51.4307 55.2852C51.364 55.7919 51.3165 56.288 51.288 56.7736C51.2174 57.9899 49.048 60.6726 48.2187 61.5975C48.1734 61.6479 48.1574 61.7317 48.1707 61.849C48.508 64.8368 49.2534 68.4169 51.376 70.5787C51.4116 70.6153 51.4183 70.657 51.396 70.7037L51.3254 70.8522C48.8907 70.5058 47.964 67.6184 47.4094 65.594C47.216 64.8917 47.0827 64.0314 46.1174 64.3392C46.1174 64.244 46.1507 64.1446 46.2174 64.041C46.244 63.9989 46.2356 63.9663 46.192 63.9434C45.972 63.8294 45.7774 63.7881 45.544 63.9187C44.3751 64.5738 43.2 65.2165 42.0187 65.8469C41.7134 66.009 41.404 66.2592 41.0667 66.431C40.7316 64.6975 40.4983 62.991 40.3667 61.3116C40.4894 61.3547 40.5543 61.2369 40.5614 60.9584C40.5631 60.9071 40.588 60.8746 40.636 60.8608L40.9934 60.7591C43.4485 60.0949 45.4049 58.7783 46.8627 56.8093C47.0854 56.5097 47.3187 56.048 47.5627 55.681C47.6018 55.6215 47.6209 55.6279 47.62 55.7003C47.6054 56.9372 47.4107 58.3445 46.8854 59.4632C46.8338 59.5731 46.852 59.5873 46.94 59.5058C48.9814 57.6257 50.2587 55.2234 51.08 52.5586C51.0916 52.5192 51.116 52.4917 51.1534 52.4761L51.26 52.4321Z" fill="#FBB79D"/>
<path d="M13.7573 52.6465C13.3093 53.8366 13.3991 54.8912 14.0266 55.8102C15.084 57.359 17.012 57.4662 18.4666 56.4918C18.5573 56.4305 18.5693 56.3338 18.5026 56.2019L18.7666 56.1386C18.8155 56.1267 18.8342 56.1464 18.8226 56.1977L18.3026 58.5561C18.2422 58.6807 18.1511 58.6724 18.0293 58.5313C18.0026 58.5002 17.9702 58.4901 17.932 58.5011C15.9506 59.0646 13.904 58.3747 12.86 56.5028C12.5053 55.8651 12.3582 55.2421 12.4186 54.6337C12.4221 54.599 12.4146 54.5639 12.3973 54.5334L12.1826 54.1582C12.5257 53.5398 13.0506 53.0359 13.7573 52.6465Z" fill="#FBB79D"/>
<path d="M12.1827 54.1582L12.3973 54.5334C12.4147 54.5638 12.4221 54.599 12.4187 54.6337C12.3582 55.2421 12.5053 55.8651 12.86 56.5028C13.904 58.3746 15.9507 59.0645 17.932 58.5011C17.9702 58.4901 18.0027 58.5001 18.0293 58.5313C18.1511 58.6724 18.2422 58.6806 18.3027 58.556C18.1311 59.6674 18.0369 60.7943 18.02 61.9369C18.02 61.9836 17.9973 62.0097 17.952 62.0152C15.5929 62.3001 13.752 61.4673 12.4293 59.5167C11.3653 57.9472 11.1947 55.8527 12.1827 54.1582Z" fill="#F29F89"/>
<path d="M51.4306 55.2852C51.6146 57.4786 51.6332 60.3784 51.9266 63.5022C52.067 65.0057 52.3288 66.4863 52.7119 67.944C52.7466 68.0741 52.8208 68.2349 52.9346 68.4264C53.2617 68.9404 53.5381 69.497 53.7639 70.0962C53.7777 70.1309 53.8021 70.1599 53.8332 70.1787C54.4546 70.547 54.4906 69.0545 54.4252 68.7095C54.4172 68.6646 54.399 68.6239 54.3706 68.5872L54.1906 68.3577C54.1434 68.2972 54.1559 68.2789 54.2279 68.3027C54.8786 68.5158 55.0466 69.3239 55.0839 69.9217C55.0867 69.9663 55.1022 70.0091 55.1286 70.0447C55.1549 70.0803 55.1909 70.107 55.2319 70.1216C55.273 70.1361 55.3173 70.1378 55.3593 70.1265C55.4013 70.1151 55.4391 70.0912 55.4679 70.0578C55.779 69.6986 55.9083 69.2707 55.8559 68.7741C55.8527 68.7507 55.8576 68.7269 55.8698 68.7068C55.882 68.6867 55.9006 68.6718 55.9225 68.6645C55.9444 68.6573 55.968 68.6583 55.9892 68.6673C56.0105 68.6762 56.0279 68.6927 56.0386 68.7137L56.4146 69.4049C56.4279 69.4306 56.4488 69.4466 56.4772 69.453L56.6132 69.4847C56.663 69.4966 56.6928 69.5282 56.7026 69.5795C56.7257 69.705 56.8039 69.7618 56.9372 69.7499C56.6572 70.5731 55.8612 70.9002 55.0572 70.9167C53.8199 70.9433 52.5759 70.9217 51.3252 70.8521L51.3959 70.7037C51.4181 70.6569 51.4114 70.6153 51.3759 70.5786C49.2532 68.4168 48.5079 64.8367 48.1706 61.8489C48.1572 61.7316 48.1732 61.6478 48.2186 61.5974C49.0479 60.6725 51.2172 57.9898 51.2879 56.7735C51.3163 56.288 51.3639 55.7918 51.4306 55.2852Z" fill="#FFD7BB"/>
<path d="M32.7508 62.7435C31.7068 62.8782 31.7294 63.4774 32.0241 64.335C32.8081 66.6095 33.3574 68.2711 34.3428 70.0659C34.3471 70.0739 34.3497 70.0827 34.3503 70.0919C34.3509 70.101 34.3494 70.1101 34.3461 70.1186C34.3428 70.127 34.3376 70.1346 34.331 70.1407C34.3244 70.1468 34.3166 70.1513 34.3081 70.1539C31.7628 70.896 29.3854 70.9702 26.7321 70.984C22.4721 71.0032 20.0334 66.9105 19.7534 62.9786C19.781 62.996 19.8081 62.9923 19.8348 62.9676C19.8588 62.9447 19.8752 62.9497 19.8841 62.9827L20.0508 63.6149C20.0623 63.6588 20.089 63.6886 20.1308 63.7042C20.1832 63.7234 20.2321 63.7056 20.2774 63.6506C20.3103 63.6103 20.3481 63.6048 20.3908 63.6341L20.6121 63.788C20.6388 63.8064 20.6676 63.8137 20.6988 63.81C21.0628 63.7743 21.1561 63.9653 21.4761 64.0093C21.5188 64.0148 21.545 64.0391 21.5548 64.0821C21.5885 64.2269 21.6281 64.2672 21.6734 64.2031C22.5414 66.3704 24.4908 68.1652 26.8641 68.1446C28.8281 68.1268 30.4134 66.8157 30.6201 64.7872C30.9628 61.4228 28.0081 59.1318 25.1708 58.3911C25.1676 58.3908 25.1645 58.3899 25.1617 58.3884C25.1589 58.3869 25.1564 58.3849 25.1544 58.3824C25.1523 58.3799 25.1508 58.377 25.1498 58.3739C25.1488 58.3708 25.1485 58.3675 25.1488 58.3643C25.149 58.361 25.1499 58.3579 25.1513 58.355C25.1528 58.3521 25.1548 58.3495 25.1572 58.3474C25.1596 58.3453 25.1624 58.3437 25.1654 58.3427C25.1684 58.3417 25.1716 58.3413 25.1748 58.3416C26.6654 58.1932 28.0663 58.5015 29.3774 59.2665C30.8094 60.1021 31.9339 61.2611 32.7508 62.7435Z" fill="#F29F89"/>
<path d="M38.4852 71.3373C36.0066 70.9511 34.9079 67.8162 34.1946 65.7396C34.223 65.736 34.2479 65.7277 34.2692 65.7149C34.3092 65.6911 34.3239 65.6558 34.3132 65.6091C34.2501 65.3443 34.2341 65.1226 34.2652 64.9439C34.4368 63.9691 34.5404 62.9892 34.5759 62.0042C34.5763 61.992 34.5807 61.9802 34.5884 61.9708C34.5961 61.9614 34.6066 61.9549 34.6182 61.9524C34.6299 61.9498 34.642 61.9514 34.6527 61.9568C34.6634 61.9622 34.6721 61.9712 34.6772 61.9823C34.7101 62.0501 34.7346 62.1293 34.7506 62.22C35.3159 65.3054 36.4346 68.6848 38.5706 70.9703C38.5855 70.9861 38.5955 71.0061 38.5994 71.0276C38.6032 71.0492 38.6006 71.0714 38.5919 71.0913L38.4852 71.3373Z" fill="#FBB79D"/>
<path d="M46.1173 64.3392C45.072 64.9205 46.2333 65.9815 45.7493 66.4364C45.4284 66.7378 45.0867 67.0118 44.724 67.2583C44.6849 67.2848 44.6422 67.2926 44.596 67.2816C44.3973 67.2308 44.1893 67.1016 44.0133 67.0631C43.1031 66.867 42.1809 66.8098 41.2466 66.8913C41.1951 66.8959 41.164 66.8721 41.1533 66.8198L41.0667 66.4309C41.404 66.2591 41.7133 66.009 42.0187 65.8468C43.2 65.2165 44.3751 64.5737 45.544 63.9187C45.7773 63.7881 45.972 63.8293 46.192 63.9434C46.2355 63.9663 46.244 63.9988 46.2173 64.041C46.1507 64.1445 46.1173 64.2439 46.1173 64.3392Z" fill="#F29F89"/>
<path d="M56.9372 69.7499C56.8039 69.7618 56.7257 69.705 56.7026 69.5795C56.6928 69.5282 56.663 69.4965 56.6132 69.4846L56.4772 69.453C56.4488 69.4466 56.4279 69.4306 56.4146 69.4049L56.0386 68.7136C56.0279 68.6927 56.0105 68.6762 55.9892 68.6672C55.968 68.6583 55.9444 68.6573 55.9225 68.6645C55.9007 68.6718 55.882 68.6867 55.8698 68.7068C55.8576 68.7268 55.8527 68.7507 55.8559 68.7741C55.9083 69.2707 55.779 69.6986 55.4679 70.0577C55.4391 70.0912 55.4013 70.1151 55.3593 70.1264C55.3173 70.1378 55.273 70.1361 55.2319 70.1216C55.1909 70.107 55.1549 70.0803 55.1286 70.0447C55.1022 70.0091 55.0867 69.9663 55.0839 69.9217C55.0466 69.3238 54.8786 68.5157 54.2279 68.3027C54.1559 68.2789 54.1435 68.2972 54.1906 68.3577L54.3706 68.5872C54.399 68.6239 54.4172 68.6646 54.4252 68.7095C54.4906 69.0545 54.4546 70.547 53.8332 70.1787C53.8021 70.1599 53.7777 70.1309 53.7639 70.0962C53.5381 69.497 53.2617 68.9404 52.9346 68.4264C53.2959 68.1433 53.5839 67.8409 54.0452 67.7928C55.3772 67.654 57.3172 67.7791 56.9372 69.7499Z" fill="#FFFEFE"/>
<path d="M45.9774 69.3307C45.925 69.0174 45.8725 68.7036 45.8201 68.3893C45.8121 68.3417 45.8285 68.3068 45.8694 68.2848L46.4094 67.9907C46.4521 67.9669 46.4827 67.9779 46.5014 68.0237L47.1094 69.5162C47.1281 69.5611 47.1134 69.5836 47.0654 69.5836L46.0281 69.5822C45.9801 69.5822 45.9592 69.5575 45.9654 69.508L45.9787 69.4132C45.9823 69.3857 45.9819 69.3582 45.9774 69.3307Z" fill="#F7CDDC"/>
<path d="M44.3521 70.3603C44.1041 70.1724 43.9427 69.8976 43.868 69.5357C43.8583 69.4871 43.8365 69.4459 43.8027 69.412L43.492 69.1069C43.4764 69.0914 43.4566 69.0811 43.4352 69.0774C43.4138 69.0736 43.3918 69.0766 43.3721 69.086C43.3524 69.0953 43.3358 69.1106 43.3247 69.1298C43.3135 69.1489 43.3082 69.1711 43.3094 69.1935C43.3507 69.9356 43.0734 70.3548 42.5067 70.7698C42.4992 70.7758 42.49 70.7791 42.4806 70.7791C42.4711 70.7791 42.4619 70.7758 42.4544 70.7698C42.4469 70.7639 42.4415 70.7555 42.4392 70.746C42.4368 70.7365 42.4376 70.7265 42.4414 70.7176C42.688 70.0579 42.6534 69.1893 41.9027 68.887C41.8814 68.8784 41.8582 68.8761 41.8357 68.8804C41.8132 68.8847 41.7923 68.8953 41.7754 68.9112C41.7585 68.9271 41.7462 68.9475 41.74 68.9702C41.7337 68.9928 41.7337 69.0169 41.74 69.0395C41.8707 69.515 41.8747 69.9997 41.7521 70.4936C41.7404 70.5398 41.7157 70.5815 41.681 70.6133C41.6464 70.6451 41.6034 70.6656 41.5574 70.6722C41.5115 70.6789 41.4647 70.6713 41.4229 70.6505C41.3811 70.6297 41.3462 70.5966 41.3227 70.5554L40.3694 68.8801C41.0201 68.1091 41.9827 68.2328 42.9521 68.362C44.0561 68.509 44.6401 69.1536 44.3521 70.3603Z" fill="#FFFEFE"/>
<path d="M58.6267 72.9053C58.6249 73.0445 58.5721 73.1201 58.4681 73.132C58.4218 73.1375 58.3778 73.1508 58.3361 73.1719C52.9041 75.9219 47.1801 77.5615 41.1587 77.8226C34.0938 78.1277 27.3609 76.572 20.9601 73.1554C20.9413 73.1455 20.9249 73.1315 20.912 73.1144C20.8991 73.0973 20.89 73.0775 20.8854 73.0565L20.8694 72.9877C31.5534 73.6886 42.2694 73.7409 52.9667 73.2791C54.8601 73.1976 56.7467 73.0729 58.6267 72.9053Z" fill="#F7CDDC"/>
</svg>
